<svg width="53" height="66" viewBox="0 0 53 66" fill="none" xmlns="http://www.w3.org/2000/svg">
<path d="M38.2188 9.88867V7.375C38.2188 5.5102 37.478 3.72177 36.1593 2.40316C34.8407 1.08454 33.0523 0.34375 31.1875 0.34375H21.8125C19.9477 0.34375 18.1593 1.08454 16.8407 2.40316C15.522 3.72177 14.7812 5.5102 14.7812 7.375V9.88867C10.8791 10.4574 7.31167 12.4104 4.73 15.3912C2.14833 18.3719 0.724622 22.1817 0.71875 26.125V61.2812C0.71875 62.5245 1.21261 63.7167 2.09169 64.5958C2.97076 65.4749 4.16305 65.9688 5.40625 65.9688H47.5938C48.837 65.9688 50.0292 65.4749 50.9083 64.5958C51.7874 63.7167 52.2812 62.5245 52.2812 61.2812V26.125C52.2754 22.1817 50.8517 18.3719 48.27 15.3912C45.6883 12.4104 42.1209 10.4574 38.2188 9.88867ZM21.8125 5.03125H31.1875C31.8091 5.03125 32.4052 5.27818 32.8448 5.71772C33.2843 6.15726 33.5312 6.7534 33.5312 7.375V9.71875H19.4688V7.375C19.4688 6.7534 19.7157 6.15726 20.1552 5.71772C20.5948 5.27818 21.1909 5.03125 21.8125 5.03125ZM38.2188 44.875H14.7812V42.5312C14.7812 41.9096 15.0282 41.3135 15.4677 40.874C15.9073 40.4344 16.5034 40.1875 17.125 40.1875H35.875C36.4966 40.1875 37.0927 40.4344 37.5323 40.874C37.9718 41.3135 38.2188 41.9096 38.2188 42.5312V44.875ZM14.7812 49.5625H28.8438V51.9062C28.8438 52.5279 29.0907 53.124 29.5302 53.5635C29.9698 54.0031 30.5659 54.25 31.1875 54.25C31.8091 54.25 32.4052 54.0031 32.8448 53.5635C33.2843 53.124 33.5312 52.5279 33.5312 51.9062V49.5625H38.2188V61.2812H14.7812V49.5625ZM47.5938 61.2812H42.9062V42.5312C42.9062 40.6664 42.1655 38.878 40.8468 37.5594C39.5282 36.2408 37.7398 35.5 35.875 35.5H17.125C15.2602 35.5 13.4718 36.2408 12.1532 37.5594C10.8345 38.878 10.0938 40.6664 10.0938 42.5312V61.2812H5.40625V26.125C5.40625 23.017 6.6409 20.0363 8.83859 17.8386C11.0363 15.6409 14.017 14.4062 17.125 14.4062H35.875C38.983 14.4062 41.9637 15.6409 44.1614 17.8386C46.3591 20.0363 47.5938 23.017 47.5938 26.125V61.2812ZM33.5312 23.7812C33.5312 24.4029 33.2843 24.999 32.8448 25.4385C32.4052 25.8781 31.8091 26.125 31.1875 26.125H21.8125C21.1909 26.125 20.5948 25.8781 20.1552 25.4385C19.7157 24.999 19.4688 24.4029 19.4688 23.7812C19.4688 23.1596 19.7157 22.5635 20.1552 22.124C20.5948 21.6844 21.1909 21.4375 21.8125 21.4375H31.1875C31.8091 21.4375 32.4052 21.6844 32.8448 22.124C33.2843 22.5635 33.5312 23.1596 33.5312 23.7812Z" fill="black"/>
</svg>
