<svg width="12" height="18" viewBox="0 0 12 18" fill="none" xmlns="http://www.w3.org/2000/svg">
<path d="M10.8802 17.6038C11.1355 17.35 11.2789 17.0059 11.2789 16.6471C11.2789 16.2882 11.1355 15.9441 10.8802 15.6903L4.13952 8.99183L10.8802 2.29334C11.1282 2.03811 11.2655 1.69629 11.2624 1.34147C11.2593 0.98666 11.1161 0.647251 10.8636 0.396351C10.6111 0.145452 10.2696 0.00313568 9.91253 5.14984e-05C9.55549 -0.00303078 9.2115 0.133368 8.95468 0.379869L1.25124 8.0351C0.995952 8.28887 0.852539 8.633 0.852539 8.99183C0.852539 9.35066 0.995952 9.6948 1.25124 9.94856L8.95468 17.6038C9.21004 17.8575 9.55635 18 9.91743 18C10.2785 18 10.6248 17.8575 10.8802 17.6038Z" fill="#9879E3"/>
</svg>
