<svg width="12" height="15" viewBox="0 0 12 15" fill="none" xmlns="http://www.w3.org/2000/svg">
<path fill-rule="evenodd" clip-rule="evenodd" d="M4.94037 0C4.31521 0 3.71567 0.241443 3.27362 0.671214C2.83157 1.10098 2.58323 1.68388 2.58323 2.29167V2.66083C1.90517 2.72441 1.22917 2.80723 0.556083 2.90917C0.471439 2.92038 0.389942 2.94788 0.316354 2.99006C0.242767 3.03224 0.178565 3.08826 0.1275 3.15484C0.0764345 3.22142 0.0395307 3.29723 0.0189448 3.37783C-0.00164105 3.45844 -0.00549614 3.54223 0.00760475 3.6243C0.0207056 3.70637 0.0504997 3.78508 0.095246 3.85582C0.139992 3.92657 0.198794 3.98794 0.268213 4.03634C0.337633 4.08474 0.416279 4.11921 0.499555 4.13772C0.582832 4.15623 0.669068 4.15843 0.753226 4.14417L0.88094 4.12583L1.6018 12.8908C1.64899 13.4652 1.91697 14.0011 2.35236 14.392C2.78775 14.7829 3.35861 14.9999 3.95123 15H8.07151C8.66414 15.0002 9.23509 14.7833 9.67064 14.3926C10.1062 14.0019 10.3744 13.466 10.4218 12.8917L11.1427 4.125L11.2704 4.14417C11.4373 4.16627 11.6064 4.12381 11.7414 4.02593C11.8764 3.92804 11.9666 3.78255 11.9924 3.62074C12.0182 3.45892 11.9777 3.29372 11.8795 3.16065C11.7814 3.02758 11.6334 2.93728 11.4675 2.90917C10.7944 2.80732 10.1184 2.72451 9.44037 2.66083V2.29167C9.44037 1.68388 9.19203 1.10098 8.74998 0.671214C8.30793 0.241443 7.70838 0 7.08322 0H4.94037ZM6.0118 2.5C6.7318 2.5 7.4458 2.52083 8.15465 2.5625V2.29167C8.15465 1.71667 7.67465 1.25 7.08322 1.25H4.94037C4.34894 1.25 3.86894 1.71667 3.86894 2.29167V2.5625C4.5778 2.52083 5.2918 2.5 6.0118 2.5ZM4.79465 5.6C4.78783 5.43424 4.71356 5.2779 4.58818 5.16538C4.4628 5.05286 4.29658 4.99337 4.12608 5C3.95559 5.00663 3.79478 5.07884 3.67904 5.20074C3.56331 5.32263 3.50212 5.48424 3.50894 5.65L3.76608 11.9C3.76946 11.9821 3.78943 12.0627 3.82486 12.1373C3.86028 12.2118 3.91047 12.2789 3.97255 12.3346C4.03464 12.3903 4.1074 12.4336 4.18669 12.462C4.26597 12.4904 4.35023 12.5033 4.43465 12.5C4.51907 12.4967 4.602 12.4773 4.67871 12.4429C4.75541 12.4084 4.82438 12.3596 4.88169 12.2993C4.939 12.2389 4.98351 12.1682 5.0127 12.0911C5.04189 12.014 5.05517 11.9321 5.0518 11.85L4.79465 5.6ZM8.51465 5.65C8.51803 5.56792 8.50475 5.486 8.47556 5.40892C8.44637 5.33183 8.40185 5.26109 8.34455 5.20074C8.28724 5.14038 8.21827 5.09158 8.14156 5.05714C8.06486 5.0227 7.98193 5.00328 7.89751 5C7.72701 4.99337 7.56079 5.05286 7.43541 5.16538C7.31003 5.2779 7.23576 5.43424 7.22894 5.6L6.9718 11.85C6.96842 11.9321 6.9817 12.014 7.01089 12.0911C7.04008 12.1682 7.08459 12.2389 7.1419 12.2993C7.19921 12.3596 7.26818 12.4084 7.34488 12.4429C7.42159 12.4773 7.50452 12.4967 7.58894 12.5C7.67336 12.5033 7.75762 12.4904 7.83691 12.462C7.91619 12.4336 7.98896 12.3903 8.05104 12.3346C8.11312 12.2789 8.16331 12.2118 8.19873 12.1373C8.23416 12.0627 8.25413 11.9821 8.25751 11.9L8.51465 5.65Z" fill="black"/>
</svg>
