<svg width="287" height="100" viewBox="0 0 287 100" fill="none" xmlns="http://www.w3.org/2000/svg">
<path d="M171 30.4062C171.001 32.4092 170.426 34.3701 169.346 36.0565C168.265 37.7429 166.723 39.0838 164.903 39.9202C164.174 38.6403 163.256 37.4771 162.181 36.4697C163.789 36.0316 165.158 34.9726 165.985 33.5257C166.812 32.0787 167.031 30.3624 166.593 28.7543C166.155 27.1461 165.096 25.7779 163.649 24.9506C162.202 24.1232 160.486 23.9046 158.877 24.3427C158.588 24.4212 158.285 24.4365 157.989 24.3878C157.693 24.339 157.411 24.2273 157.162 24.0602C156.914 23.893 156.703 23.6743 156.546 23.4189C156.389 23.1635 156.289 22.8774 156.252 22.5798C155.956 20.1817 154.974 17.9199 153.425 16.0655C151.876 14.2111 149.825 12.8428 147.518 12.1246C145.211 11.4064 142.746 11.3688 140.418 12.0163C138.09 12.6637 135.998 13.9688 134.393 15.7751C132.604 15.693 130.811 15.8166 129.05 16.1436C130.656 13.1864 133.115 10.7812 136.106 9.24101C139.098 7.70081 142.485 7.09699 145.824 7.50814C149.164 7.9193 152.303 9.32639 154.832 11.5462C157.361 13.7661 159.163 16.6959 160.004 19.9542C161.421 19.8827 162.838 20.1 164.168 20.593C165.499 21.0859 166.715 21.8442 167.744 22.8217C168.772 23.7993 169.591 24.9757 170.151 26.2795C170.711 27.5833 171 28.9873 171 30.4062Z" fill="black"/>
<path d="M133.313 19.9375C137.948 19.9366 142.422 21.6446 145.877 24.7347C149.333 27.8249 151.528 32.0804 152.043 36.6875H152.156C154.933 36.6875 157.596 37.7905 159.559 39.7537C161.522 41.717 162.625 44.3798 162.625 47.1562C162.625 49.9327 161.522 52.5955 159.559 54.5588C157.596 56.522 154.933 57.625 152.156 57.625H116.563C113.319 57.6274 110.2 56.3751 107.859 54.13C105.517 51.8849 104.135 48.8211 104.001 45.5801C103.868 42.339 104.993 39.1719 107.142 36.7417C109.29 34.3114 112.295 32.8065 115.528 32.5419C116.822 28.8579 119.228 25.6666 122.414 23.4087C125.6 21.1509 129.408 19.938 133.313 19.9375ZM147.969 38.7812C147.971 35.2115 146.671 31.7635 144.312 29.0846C141.952 26.4056 138.696 24.6798 135.155 24.2311C131.614 23.7824 128.03 24.6416 125.077 26.6475C122.124 28.6534 120.005 31.668 119.117 35.1256C118.997 35.5935 118.719 36.0055 118.329 36.2917C117.94 36.5779 117.464 36.7207 116.981 36.6959C115.869 36.6465 114.758 36.8194 113.713 37.2045C112.669 37.5897 111.711 38.1792 110.897 38.9388C110.083 39.6984 109.428 40.6126 108.972 41.6282C108.515 42.6437 108.265 43.7401 108.238 44.8532C108.21 45.9663 108.404 47.0738 108.809 48.1109C109.215 49.148 109.823 50.0939 110.598 50.8932C111.373 51.6925 112.3 52.3292 113.324 52.7661C114.348 53.203 115.449 53.4312 116.563 53.4375H152.156C153.047 53.4354 153.927 53.244 154.738 52.8759C155.549 52.5078 156.273 51.9714 156.86 51.3024C157.448 50.6333 157.887 49.8469 158.148 48.9953C158.409 48.1437 158.485 47.2464 158.373 46.3629C158.26 45.4794 157.961 44.6299 157.495 43.8708C157.03 43.1118 156.408 42.4604 155.671 41.96C154.934 41.4597 154.099 41.1217 153.222 40.9686C152.345 40.8154 151.445 40.8506 150.582 41.0718C150.27 41.1517 149.944 41.1586 149.629 41.092C149.314 41.0253 149.019 40.887 148.766 40.6877C148.513 40.4884 148.31 40.2335 148.172 39.9428C148.033 39.6521 147.964 39.3334 147.969 39.0116V38.7812Z" fill="black"/>
<path d="M126.128 79.125V77.981H128.416V86H127.151V79.125H126.128ZM135.221 78.949L132.163 86H130.898L133.989 79.081H129.919V78.014H135.221V78.949ZM136.096 79.917C136.096 79.3817 136.25 78.9637 136.558 78.663C136.873 78.355 137.276 78.201 137.768 78.201C138.259 78.201 138.659 78.355 138.967 78.663C139.282 78.9637 139.44 79.3817 139.44 79.917C139.44 80.4523 139.282 80.874 138.967 81.182C138.659 81.49 138.259 81.644 137.768 81.644C137.276 81.644 136.873 81.49 136.558 81.182C136.25 80.874 136.096 80.4523 136.096 79.917ZM142.806 78.344L138.417 86H137.185L141.574 78.344H142.806ZM137.768 78.96C137.306 78.96 137.075 79.279 137.075 79.917C137.075 80.5623 137.306 80.885 137.768 80.885C137.988 80.885 138.156 80.808 138.274 80.654C138.398 80.4927 138.461 80.247 138.461 79.917C138.461 79.279 138.23 78.96 137.768 78.96ZM140.573 84.416C140.573 83.8807 140.727 83.4627 141.035 83.162C141.35 82.854 141.753 82.7 142.245 82.7C142.729 82.7 143.125 82.854 143.433 83.162C143.748 83.4627 143.906 83.8807 143.906 84.416C143.906 84.9513 143.748 85.373 143.433 85.681C143.125 85.989 142.729 86.143 142.245 86.143C141.753 86.143 141.35 85.989 141.035 85.681C140.727 85.373 140.573 84.9513 140.573 84.416ZM142.234 83.459C141.772 83.459 141.541 83.778 141.541 84.416C141.541 85.054 141.772 85.373 142.234 85.373C142.696 85.373 142.927 85.054 142.927 84.416C142.927 83.778 142.696 83.459 142.234 83.459ZM100.378 96.988H102.963V98H99.1243V90.355H100.378V96.988ZM105.266 91.367V93.611H107.906V94.634H105.266V96.977H108.236V98H104.012V90.344H108.236V91.367H105.266ZM112.3 98.077C111.786 98.077 111.324 97.989 110.914 97.813C110.503 97.6297 110.18 97.373 109.946 97.043C109.711 96.713 109.594 96.328 109.594 95.888H110.936C110.965 96.218 111.093 96.4893 111.321 96.702C111.555 96.9147 111.882 97.021 112.3 97.021C112.732 97.021 113.07 96.9183 113.312 96.713C113.554 96.5003 113.675 96.229 113.675 95.899C113.675 95.6423 113.598 95.4333 113.444 95.272C113.297 95.1107 113.11 94.986 112.883 94.898C112.663 94.81 112.355 94.7147 111.959 94.612C111.46 94.48 111.053 94.348 110.738 94.216C110.43 94.0767 110.166 93.864 109.946 93.578C109.726 93.292 109.616 92.9107 109.616 92.434C109.616 91.994 109.726 91.609 109.946 91.279C110.166 90.949 110.474 90.696 110.87 90.52C111.266 90.344 111.724 90.256 112.245 90.256C112.985 90.256 113.59 90.443 114.06 90.817C114.536 91.1837 114.8 91.6897 114.852 92.335H113.466C113.444 92.0563 113.312 91.818 113.07 91.62C112.828 91.422 112.509 91.323 112.113 91.323C111.753 91.323 111.46 91.4147 111.233 91.598C111.005 91.7813 110.892 92.0453 110.892 92.39C110.892 92.6247 110.961 92.819 111.101 92.973C111.247 93.1197 111.431 93.237 111.651 93.325C111.871 93.413 112.171 93.5083 112.553 93.611C113.059 93.7503 113.469 93.8897 113.785 94.029C114.107 94.1683 114.379 94.3847 114.599 94.678C114.826 94.964 114.94 95.349 114.94 95.833C114.94 96.2217 114.833 96.5883 114.621 96.933C114.415 97.2777 114.111 97.5563 113.708 97.769C113.312 97.9743 112.842 98.077 112.3 98.077ZM118.938 98.077C118.425 98.077 117.963 97.989 117.552 97.813C117.142 97.6297 116.819 97.373 116.584 97.043C116.35 96.713 116.232 96.328 116.232 95.888H117.574C117.604 96.218 117.732 96.4893 117.959 96.702C118.194 96.9147 118.52 97.021 118.938 97.021C119.371 97.021 119.708 96.9183 119.95 96.713C120.192 96.5003 120.313 96.229 120.313 95.899C120.313 95.6423 120.236 95.4333 120.082 95.272C119.936 95.1107 119.749 94.986 119.521 94.898C119.301 94.81 118.993 94.7147 118.597 94.612C118.099 94.48 117.692 94.348 117.376 94.216C117.068 94.0767 116.804 93.864 116.584 93.578C116.364 93.292 116.254 92.9107 116.254 92.434C116.254 91.994 116.364 91.609 116.584 91.279C116.804 90.949 117.112 90.696 117.508 90.52C117.904 90.344 118.363 90.256 118.883 90.256C119.624 90.256 120.229 90.443 120.698 90.817C121.175 91.1837 121.439 91.6897 121.49 92.335H120.104C120.082 92.0563 119.95 91.818 119.708 91.62C119.466 91.422 119.147 91.323 118.751 91.323C118.392 91.323 118.099 91.4147 117.871 91.598C117.644 91.7813 117.53 92.0453 117.53 92.39C117.53 92.6247 117.6 92.819 117.739 92.973C117.886 93.1197 118.069 93.237 118.289 93.325C118.509 93.413 118.81 93.5083 119.191 93.611C119.697 93.7503 120.108 93.8897 120.423 94.029C120.746 94.1683 121.017 94.3847 121.237 94.678C121.465 94.964 121.578 95.349 121.578 95.833C121.578 96.2217 121.472 96.5883 121.259 96.933C121.054 97.2777 120.75 97.5563 120.346 97.769C119.95 97.9743 119.481 98.077 118.938 98.077ZM125.497 94.161C125.497 93.413 125.67 92.742 126.014 92.148C126.366 91.554 126.839 91.092 127.433 90.762C128.035 90.4247 128.691 90.256 129.402 90.256C130.216 90.256 130.939 90.4577 131.569 90.861C132.207 91.257 132.669 91.8217 132.955 92.555H131.448C131.25 92.1517 130.975 91.851 130.623 91.653C130.271 91.455 129.864 91.356 129.402 91.356C128.896 91.356 128.445 91.4697 128.049 91.697C127.653 91.9243 127.342 92.2507 127.114 92.676C126.894 93.1013 126.784 93.5963 126.784 94.161C126.784 94.7257 126.894 95.2207 127.114 95.646C127.342 96.0713 127.653 96.4013 128.049 96.636C128.445 96.8633 128.896 96.977 129.402 96.977C129.864 96.977 130.271 96.878 130.623 96.68C130.975 96.482 131.25 96.1813 131.448 95.778H132.955C132.669 96.5113 132.207 97.076 131.569 97.472C130.939 97.868 130.216 98.066 129.402 98.066C128.684 98.066 128.027 97.901 127.433 97.571C126.839 97.2337 126.366 96.768 126.014 96.174C125.67 95.58 125.497 94.909 125.497 94.161ZM139.032 96.438H135.831L135.281 98H133.972L136.711 90.344H138.163L140.902 98H139.582L139.032 96.438ZM138.68 95.415L137.437 91.862L136.183 95.415H138.68ZM146.064 98L144.304 94.942H143.347V98H142.093V90.355H144.733C145.32 90.355 145.815 90.4577 146.218 90.663C146.629 90.8683 146.933 91.1433 147.131 91.488C147.336 91.8327 147.439 92.2177 147.439 92.643C147.439 93.1417 147.292 93.5963 146.999 94.007C146.713 94.4103 146.269 94.6853 145.668 94.832L147.56 98H146.064ZM143.347 93.941H144.733C145.202 93.941 145.554 93.8237 145.789 93.589C146.031 93.3543 146.152 93.039 146.152 92.643C146.152 92.247 146.035 91.939 145.8 91.719C145.565 91.4917 145.21 91.378 144.733 91.378H143.347V93.941ZM153.135 94.073C153.546 94.1463 153.894 94.3627 154.18 94.722C154.466 95.0813 154.609 95.4883 154.609 95.943C154.609 96.3317 154.507 96.6837 154.301 96.999C154.103 97.307 153.814 97.5527 153.432 97.736C153.051 97.912 152.607 98 152.101 98H149.043V90.355H151.958C152.479 90.355 152.926 90.443 153.3 90.619C153.674 90.795 153.957 91.0333 154.147 91.334C154.338 91.6273 154.433 91.9573 154.433 92.324C154.433 92.764 154.316 93.1307 154.081 93.424C153.847 93.7173 153.531 93.9337 153.135 94.073ZM150.297 93.567H151.848C152.259 93.567 152.578 93.4753 152.805 93.292C153.04 93.1013 153.157 92.83 153.157 92.478C153.157 92.1333 153.04 91.8657 152.805 91.675C152.578 91.477 152.259 91.378 151.848 91.378H150.297V93.567ZM151.991 96.977C152.417 96.977 152.75 96.8743 152.992 96.669C153.234 96.4637 153.355 96.1777 153.355 95.811C153.355 95.437 153.227 95.14 152.97 94.92C152.714 94.7 152.373 94.59 151.947 94.59H150.297V96.977H151.991ZM159.459 98.077C158.748 98.077 158.091 97.912 157.49 97.582C156.896 97.2447 156.423 96.779 156.071 96.185C155.726 95.5837 155.554 94.909 155.554 94.161C155.554 93.413 155.726 92.742 156.071 92.148C156.423 91.554 156.896 91.092 157.49 90.762C158.091 90.4247 158.748 90.256 159.459 90.256C160.178 90.256 160.834 90.4247 161.428 90.762C162.029 91.092 162.502 91.554 162.847 92.148C163.192 92.742 163.364 93.413 163.364 94.161C163.364 94.909 163.192 95.5837 162.847 96.185C162.502 96.779 162.029 97.2447 161.428 97.582C160.834 97.912 160.178 98.077 159.459 98.077ZM159.459 96.988C159.965 96.988 160.416 96.8743 160.812 96.647C161.208 96.4123 161.516 96.0823 161.736 95.657C161.963 95.2243 162.077 94.7257 162.077 94.161C162.077 93.5963 161.963 93.1013 161.736 92.676C161.516 92.2507 161.208 91.9243 160.812 91.697C160.416 91.4697 159.965 91.356 159.459 91.356C158.953 91.356 158.502 91.4697 158.106 91.697C157.71 91.9243 157.398 92.2507 157.171 92.676C156.951 93.1013 156.841 93.5963 156.841 94.161C156.841 94.7257 156.951 95.2243 157.171 95.657C157.398 96.0823 157.71 96.4123 158.106 96.647C158.502 96.8743 158.953 96.988 159.459 96.988ZM170.879 98H169.625L165.852 92.291V98H164.598V90.344H165.852L169.625 96.042V90.344H170.879V98Z" fill="black"/>
<circle cx="247" cy="36" r="35" stroke="black" stroke-width="2"/>
<line x1="268.8" y1="8.6" x2="226.8" y2="64.6" stroke="black" stroke-width="2"/>
<path d="M243 7H251C252.33 7 253.4 8.08672 253.4 9.4375V13.5H240.6V9.4375C240.6 8.08672 241.67 7 243 7ZM234.2 22.407C234.2 20.8227 235.1 19.3805 236.52 18.7L238.96 17.5422C240.06 17.0242 241.26 16.75 242.47 16.75H251.53C252.74 16.75 253.94 17.0242 255.04 17.5422L257.48 18.7C258.89 19.3703 259.8 20.8125 259.8 22.407C259.8 23.8695 259.05 25.1492 257.91 25.8703C259.06 26.7641 259.8 28.1656 259.8 29.75C259.8 31.4461 258.95 32.9391 257.65 33.8125C258.94 34.6859 259.8 36.1789 259.8 37.875C259.8 39.5711 258.95 41.0641 257.65 41.9375C258.94 42.8109 259.8 44.3039 259.8 46C259.8 47.6961 258.95 49.1891 257.65 50.0625C258.94 50.9359 259.8 52.4289 259.8 54.125C259.8 56.8164 257.65 59 255 59H239C236.35 59 234.2 56.8164 234.2 54.125C234.2 52.4289 235.05 50.9359 236.35 50.0625C235.05 49.1891 234.2 47.6961 234.2 46C234.2 44.3039 235.05 42.8109 236.35 41.9375C235.05 41.0641 234.2 39.5711 234.2 37.875C234.2 36.1789 235.05 34.6859 236.35 33.8125C235.05 32.9391 234.2 31.4461 234.2 29.75C234.2 28.1656 234.94 26.7641 236.09 25.8703C234.95 25.1492 234.2 23.8695 234.2 22.407ZM240.6 31.375C240.6 32.2687 241.32 33 242.2 33H251.8C252.68 33 253.4 32.2687 253.4 31.375C253.4 30.4813 252.68 29.75 251.8 29.75H242.2C241.32 29.75 240.6 30.4813 240.6 31.375ZM242.2 42.75C241.32 42.75 240.6 43.4813 240.6 44.375C240.6 45.2687 241.32 46 242.2 46H251.8C252.68 46 253.4 45.2687 253.4 44.375C253.4 43.4813 252.68 42.75 251.8 42.75H242.2Z" fill="black"/>
<path d="M214.564 86H213.31L209.537 80.291V86H208.283V78.344H209.537L213.31 84.042V78.344H214.564V86ZM219.698 86.077C218.986 86.077 218.33 85.912 217.729 85.582C217.135 85.2447 216.662 84.779 216.31 84.185C215.965 83.5837 215.793 82.909 215.793 82.161C215.793 81.413 215.965 80.742 216.31 80.148C216.662 79.554 217.135 79.092 217.729 78.762C218.33 78.4247 218.986 78.256 219.698 78.256C220.416 78.256 221.073 78.4247 221.667 78.762C222.268 79.092 222.741 79.554 223.086 80.148C223.43 80.742 223.603 81.413 223.603 82.161C223.603 82.909 223.43 83.5837 223.086 84.185C222.741 84.779 222.268 85.2447 221.667 85.582C221.073 85.912 220.416 86.077 219.698 86.077ZM219.698 84.988C220.204 84.988 220.655 84.8743 221.051 84.647C221.447 84.4123 221.755 84.0823 221.975 83.657C222.202 83.2243 222.316 82.7257 222.316 82.161C222.316 81.5963 222.202 81.1013 221.975 80.676C221.755 80.2507 221.447 79.9243 221.051 79.697C220.655 79.4697 220.204 79.356 219.698 79.356C219.192 79.356 218.741 79.4697 218.345 79.697C217.949 79.9243 217.637 80.2507 217.41 80.676C217.19 81.1013 217.08 81.5963 217.08 82.161C217.08 82.7257 217.19 83.2243 217.41 83.657C217.637 84.0823 217.949 84.4123 218.345 84.647C218.741 84.8743 219.192 84.988 219.698 84.988ZM233.04 80.632C233.04 81.0207 232.948 81.3873 232.765 81.732C232.582 82.0767 232.288 82.359 231.885 82.579C231.482 82.7917 230.965 82.898 230.334 82.898H228.948V86H227.694V78.355H230.334C230.921 78.355 231.416 78.4577 231.819 78.663C232.23 78.861 232.534 79.1323 232.732 79.477C232.937 79.8217 233.04 80.2067 233.04 80.632ZM230.334 81.875C230.811 81.875 231.166 81.7687 231.401 81.556C231.636 81.336 231.753 81.028 231.753 80.632C231.753 79.796 231.28 79.378 230.334 79.378H228.948V81.875H230.334ZM235.49 79.367V81.611H238.13V82.634H235.49V84.977H238.46V86H234.236V78.344H238.46V79.367H235.49ZM242.524 86.077C242.01 86.077 241.548 85.989 241.138 85.813C240.727 85.6297 240.404 85.373 240.17 85.043C239.935 84.713 239.818 84.328 239.818 83.888H241.16C241.189 84.218 241.317 84.4893 241.545 84.702C241.779 84.9147 242.106 85.021 242.524 85.021C242.956 85.021 243.294 84.9183 243.536 84.713C243.778 84.5003 243.899 84.229 243.899 83.899C243.899 83.6423 243.822 83.4333 243.668 83.272C243.521 83.1107 243.334 82.986 243.107 82.898C242.887 82.81 242.579 82.7147 242.183 82.612C241.684 82.48 241.277 82.348 240.962 82.216C240.654 82.0767 240.39 81.864 240.17 81.578C239.95 81.292 239.84 80.9107 239.84 80.434C239.84 79.994 239.95 79.609 240.17 79.279C240.39 78.949 240.698 78.696 241.094 78.52C241.49 78.344 241.948 78.256 242.469 78.256C243.209 78.256 243.814 78.443 244.284 78.817C244.76 79.1837 245.024 79.6897 245.076 80.335H243.69C243.668 80.0563 243.536 79.818 243.294 79.62C243.052 79.422 242.733 79.323 242.337 79.323C241.977 79.323 241.684 79.4147 241.457 79.598C241.229 79.7813 241.116 80.0453 241.116 80.39C241.116 80.6247 241.185 80.819 241.325 80.973C241.471 81.1197 241.655 81.237 241.875 81.325C242.095 81.413 242.395 81.5083 242.777 81.611C243.283 81.7503 243.693 81.8897 244.009 82.029C244.331 82.1683 244.603 82.3847 244.823 82.678C245.05 82.964 245.164 83.349 245.164 83.833C245.164 84.2217 245.057 84.5883 244.845 84.933C244.639 85.2777 244.335 85.5563 243.932 85.769C243.536 85.9743 243.066 86.077 242.524 86.077ZM251.582 78.355V79.378H249.547V86H248.293V79.378H246.247V78.355H251.582ZM254.106 78.355V86H252.852V78.355H254.106ZM255.335 82.161C255.335 81.413 255.507 80.742 255.852 80.148C256.204 79.554 256.677 79.092 257.271 78.762C257.872 78.4247 258.528 78.256 259.24 78.256C260.054 78.256 260.776 78.4577 261.407 78.861C262.045 79.257 262.507 79.8217 262.793 80.555H261.286C261.088 80.1517 260.813 79.851 260.461 79.653C260.109 79.455 259.702 79.356 259.24 79.356C258.734 79.356 258.283 79.4697 257.887 79.697C257.491 79.9243 257.179 80.2507 256.952 80.676C256.732 81.1013 256.622 81.5963 256.622 82.161C256.622 82.7257 256.732 83.2207 256.952 83.646C257.179 84.0713 257.491 84.4013 257.887 84.636C258.283 84.8633 258.734 84.977 259.24 84.977C259.702 84.977 260.109 84.878 260.461 84.68C260.813 84.482 261.088 84.1813 261.286 83.778H262.793C262.507 84.5113 262.045 85.076 261.407 85.472C260.776 85.868 260.054 86.066 259.24 86.066C258.521 86.066 257.865 85.901 257.271 85.571C256.677 85.2337 256.204 84.768 255.852 84.174C255.507 83.58 255.335 82.909 255.335 82.161ZM265.515 78.355V86H264.261V78.355H265.515ZM269.658 78.355C270.472 78.355 271.183 78.5127 271.792 78.828C272.408 79.136 272.881 79.5833 273.211 80.17C273.548 80.7493 273.717 81.4277 273.717 82.205C273.717 82.9823 273.548 83.657 273.211 84.229C272.881 84.801 272.408 85.241 271.792 85.549C271.183 85.8497 270.472 86 269.658 86H267.161V78.355H269.658ZM269.658 84.977C270.553 84.977 271.238 84.735 271.715 84.251C272.192 83.767 272.43 83.085 272.43 82.205C272.43 81.3177 272.192 80.6247 271.715 80.126C271.238 79.6273 270.553 79.378 269.658 79.378H268.415V84.977H269.658ZM276.214 79.367V81.611H278.854V82.634H276.214V84.977H279.184V86H274.96V78.344H279.184V79.367H276.214ZM283.247 86.077C282.734 86.077 282.272 85.989 281.861 85.813C281.451 85.6297 281.128 85.373 280.893 85.043C280.659 84.713 280.541 84.328 280.541 83.888H281.883C281.913 84.218 282.041 84.4893 282.268 84.702C282.503 84.9147 282.829 85.021 283.247 85.021C283.68 85.021 284.017 84.9183 284.259 84.713C284.501 84.5003 284.622 84.229 284.622 83.899C284.622 83.6423 284.545 83.4333 284.391 83.272C284.245 83.1107 284.058 82.986 283.83 82.898C283.61 82.81 283.302 82.7147 282.906 82.612C282.408 82.48 282.001 82.348 281.685 82.216C281.377 82.0767 281.113 81.864 280.893 81.578C280.673 81.292 280.563 80.9107 280.563 80.434C280.563 79.994 280.673 79.609 280.893 79.279C281.113 78.949 281.421 78.696 281.817 78.52C282.213 78.344 282.672 78.256 283.192 78.256C283.933 78.256 284.538 78.443 285.007 78.817C285.484 79.1837 285.748 79.6897 285.799 80.335H284.413C284.391 80.0563 284.259 79.818 284.017 79.62C283.775 79.422 283.456 79.323 283.06 79.323C282.701 79.323 282.408 79.4147 282.18 79.598C281.953 79.7813 281.839 80.0453 281.839 80.39C281.839 80.6247 281.909 80.819 282.048 80.973C282.195 81.1197 282.378 81.237 282.598 81.325C282.818 81.413 283.119 81.5083 283.5 81.611C284.006 81.7503 284.417 81.8897 284.732 82.029C285.055 82.1683 285.326 82.3847 285.546 82.678C285.774 82.964 285.887 83.349 285.887 83.833C285.887 84.2217 285.781 84.5883 285.568 84.933C285.363 85.2777 285.059 85.5563 284.655 85.769C284.259 85.9743 283.79 86.077 283.247 86.077ZM222.723 98H221.469L217.696 92.291V98H216.442V90.344H217.696L221.469 96.042V90.344H222.723V98ZM227.856 98.077C227.145 98.077 226.489 97.912 225.887 97.582C225.293 97.2447 224.82 96.779 224.468 96.185C224.124 95.5837 223.951 94.909 223.951 94.161C223.951 93.413 224.124 92.742 224.468 92.148C224.82 91.554 225.293 91.092 225.887 90.762C226.489 90.4247 227.145 90.256 227.856 90.256C228.575 90.256 229.231 90.4247 229.825 90.762C230.427 91.092 230.9 91.554 231.244 92.148C231.589 92.742 231.761 93.413 231.761 94.161C231.761 94.909 231.589 95.5837 231.244 96.185C230.9 96.779 230.427 97.2447 229.825 97.582C229.231 97.912 228.575 98.077 227.856 98.077ZM227.856 96.988C228.362 96.988 228.813 96.8743 229.209 96.647C229.605 96.4123 229.913 96.0823 230.133 95.657C230.361 95.2243 230.474 94.7257 230.474 94.161C230.474 93.5963 230.361 93.1013 230.133 92.676C229.913 92.2507 229.605 91.9243 229.209 91.697C228.813 91.4697 228.362 91.356 227.856 91.356C227.35 91.356 226.899 91.4697 226.503 91.697C226.107 91.9243 225.796 92.2507 225.568 92.676C225.348 93.1013 225.238 93.5963 225.238 94.161C225.238 94.7257 225.348 95.2243 225.568 95.657C225.796 96.0823 226.107 96.4123 226.503 96.647C226.899 96.8743 227.35 96.988 227.856 96.988ZM241.199 92.632C241.199 93.0207 241.107 93.3873 240.924 93.732C240.74 94.0767 240.447 94.359 240.044 94.579C239.64 94.7917 239.123 94.898 238.493 94.898H237.107V98H235.853V90.355H238.493C239.079 90.355 239.574 90.4577 239.978 90.663C240.388 90.861 240.693 91.1323 240.891 91.477C241.096 91.8217 241.199 92.2067 241.199 92.632ZM238.493 93.875C238.969 93.875 239.325 93.7687 239.56 93.556C239.794 93.336 239.912 93.028 239.912 92.632C239.912 91.796 239.439 91.378 238.493 91.378H237.107V93.875H238.493ZM243.649 96.988H246.234V98H242.395V90.355H243.649V96.988ZM251.892 96.438H248.691L248.141 98H246.832L249.571 90.344H251.023L253.762 98H252.442L251.892 96.438ZM251.54 95.415L250.297 91.862L249.043 95.415H251.54ZM257.471 98.077C256.958 98.077 256.496 97.989 256.085 97.813C255.675 97.6297 255.352 97.373 255.117 97.043C254.883 96.713 254.765 96.328 254.765 95.888H256.107C256.137 96.218 256.265 96.4893 256.492 96.702C256.727 96.9147 257.053 97.021 257.471 97.021C257.904 97.021 258.241 96.9183 258.483 96.713C258.725 96.5003 258.846 96.229 258.846 95.899C258.846 95.6423 258.769 95.4333 258.615 95.272C258.469 95.1107 258.282 94.986 258.054 94.898C257.834 94.81 257.526 94.7147 257.13 94.612C256.632 94.48 256.225 94.348 255.909 94.216C255.601 94.0767 255.337 93.864 255.117 93.578C254.897 93.292 254.787 92.9107 254.787 92.434C254.787 91.994 254.897 91.609 255.117 91.279C255.337 90.949 255.645 90.696 256.041 90.52C256.437 90.344 256.896 90.256 257.416 90.256C258.157 90.256 258.762 90.443 259.231 90.817C259.708 91.1837 259.972 91.6897 260.023 92.335H258.637C258.615 92.0563 258.483 91.818 258.241 91.62C257.999 91.422 257.68 91.323 257.284 91.323C256.925 91.323 256.632 91.4147 256.404 91.598C256.177 91.7813 256.063 92.0453 256.063 92.39C256.063 92.6247 256.133 92.819 256.272 92.973C256.419 93.1197 256.602 93.237 256.822 93.325C257.042 93.413 257.343 93.5083 257.724 93.611C258.23 93.7503 258.641 93.8897 258.956 94.029C259.279 94.1683 259.55 94.3847 259.77 94.678C259.998 94.964 260.111 95.349 260.111 95.833C260.111 96.2217 260.005 96.5883 259.792 96.933C259.587 97.2777 259.283 97.5563 258.879 97.769C258.483 97.9743 258.014 98.077 257.471 98.077ZM266.53 90.355V91.378H264.495V98H263.241V91.378H261.195V90.355H266.53ZM269.054 90.355V98H267.8V90.355H269.054ZM270.282 94.161C270.282 93.413 270.455 92.742 270.799 92.148C271.151 91.554 271.624 91.092 272.218 90.762C272.82 90.4247 273.476 90.256 274.187 90.256C275.001 90.256 275.724 90.4577 276.354 90.861C276.992 91.257 277.454 91.8217 277.74 92.555H276.233C276.035 92.1517 275.76 91.851 275.408 91.653C275.056 91.455 274.649 91.356 274.187 91.356C273.681 91.356 273.23 91.4697 272.834 91.697C272.438 91.9243 272.127 92.2507 271.899 92.676C271.679 93.1013 271.569 93.5963 271.569 94.161C271.569 94.7257 271.679 95.2207 271.899 95.646C272.127 96.0713 272.438 96.4013 272.834 96.636C273.23 96.8633 273.681 96.977 274.187 96.977C274.649 96.977 275.056 96.878 275.408 96.68C275.76 96.482 276.035 96.1813 276.233 95.778H277.74C277.454 96.5113 276.992 97.076 276.354 97.472C275.724 97.868 275.001 98.066 274.187 98.066C273.469 98.066 272.812 97.901 272.218 97.571C271.624 97.2337 271.151 96.768 270.799 96.174C270.455 95.58 270.282 94.909 270.282 94.161Z" fill="black"/>
<path d="M19.0604 81.809C18.2977 81.4277 17.9164 80.8263 17.9164 80.005C17.9164 79.609 18.0154 79.246 18.2134 78.916C18.4114 78.586 18.7084 78.3257 19.1044 78.135C19.5004 77.937 19.9844 77.838 20.5564 77.838C21.121 77.838 21.6014 77.937 21.9974 78.135C22.4007 78.3257 22.7014 78.586 22.8994 78.916C23.0974 79.246 23.1964 79.609 23.1964 80.005C23.1964 80.4157 23.09 80.7787 22.8774 81.094C22.672 81.402 22.397 81.6403 22.0524 81.809C22.4704 81.963 22.8004 82.216 23.0424 82.568C23.2844 82.9127 23.4054 83.3197 23.4054 83.789C23.4054 84.2657 23.2844 84.6873 23.0424 85.054C22.8004 85.4207 22.463 85.703 22.0304 85.901C21.5977 86.099 21.1064 86.198 20.5564 86.198C20.0064 86.198 19.515 86.099 19.0824 85.901C18.657 85.703 18.3234 85.4207 18.0814 85.054C17.8394 84.6873 17.7184 84.2657 17.7184 83.789C17.7184 83.3123 17.8394 82.9017 18.0814 82.557C18.3234 82.2123 18.6497 81.963 19.0604 81.809ZM21.9974 80.159C21.9974 79.7483 21.869 79.433 21.6124 79.213C21.3557 78.993 21.0037 78.883 20.5564 78.883C20.1164 78.883 19.768 78.993 19.5114 79.213C19.2547 79.433 19.1264 79.752 19.1264 80.17C19.1264 80.5367 19.2584 80.8373 19.5224 81.072C19.7937 81.2993 20.1384 81.413 20.5564 81.413C20.9744 81.413 21.319 81.2957 21.5904 81.061C21.8617 80.8263 21.9974 80.5257 21.9974 80.159ZM20.5564 82.359C20.0724 82.359 19.6764 82.48 19.3684 82.722C19.0677 82.9567 18.9174 83.2977 18.9174 83.745C18.9174 84.163 19.064 84.504 19.3574 84.768C19.6507 85.0247 20.0504 85.153 20.5564 85.153C21.055 85.153 21.4474 85.021 21.7334 84.757C22.0267 84.493 22.1734 84.1557 22.1734 83.745C22.1734 83.305 22.023 82.964 21.7224 82.722C21.429 82.48 21.0404 82.359 20.5564 82.359ZM29.804 78.949L26.746 86H25.481L28.572 79.081H24.502V78.014H29.804V78.949ZM31.5483 86.077C31.321 86.077 31.1303 86 30.9763 85.846C30.8223 85.692 30.7453 85.5013 30.7453 85.274C30.7453 85.0467 30.8223 84.856 30.9763 84.702C31.1303 84.548 31.321 84.471 31.5483 84.471C31.7683 84.471 31.9553 84.548 32.1093 84.702C32.2633 84.856 32.3403 85.0467 32.3403 85.274C32.3403 85.5013 32.2633 85.692 32.1093 85.846C31.9553 86 31.7683 86.077 31.5483 86.077ZM34.2236 84.295C34.9276 83.6863 35.4813 83.1877 35.8846 82.799C36.2953 82.403 36.6363 81.9923 36.9076 81.567C37.1789 81.1417 37.3146 80.7163 37.3146 80.291C37.3146 79.851 37.2083 79.5063 36.9956 79.257C36.7903 79.0077 36.4639 78.883 36.0166 78.883C35.5839 78.883 35.2466 79.0223 35.0046 79.301C34.7699 79.5723 34.6453 79.939 34.6306 80.401H33.4206C33.4426 79.565 33.6919 78.927 34.1686 78.487C34.6526 78.0397 35.2649 77.816 36.0056 77.816C36.8049 77.816 37.4283 78.036 37.8756 78.476C38.3303 78.916 38.5576 79.5027 38.5576 80.236C38.5576 80.764 38.4219 81.2737 38.1506 81.765C37.8866 82.249 37.5676 82.6853 37.1936 83.074C36.8269 83.4553 36.3576 83.899 35.7856 84.405L35.2906 84.845H38.7776V85.89H33.4316V84.977L34.2236 84.295ZM39.6812 79.917C39.6812 79.3817 39.8352 78.9637 40.1432 78.663C40.4586 78.355 40.8619 78.201 41.3532 78.201C41.8446 78.201 42.2442 78.355 42.5522 78.663C42.8676 78.9637 43.0252 79.3817 43.0252 79.917C43.0252 80.4523 42.8676 80.874 42.5522 81.182C42.2442 81.49 41.8446 81.644 41.3532 81.644C40.8619 81.644 40.4586 81.49 40.1432 81.182C39.8352 80.874 39.6812 80.4523 39.6812 79.917ZM46.3912 78.344L42.0022 86H40.7702L45.1592 78.344H46.3912ZM41.3532 78.96C40.8912 78.96 40.6602 79.279 40.6602 79.917C40.6602 80.5623 40.8912 80.885 41.3532 80.885C41.5732 80.885 41.7419 80.808 41.8592 80.654C41.9839 80.4927 42.0462 80.247 42.0462 79.917C42.0462 79.279 41.8152 78.96 41.3532 78.96ZM44.1582 84.416C44.1582 83.8807 44.3122 83.4627 44.6202 83.162C44.9356 82.854 45.3389 82.7 45.8302 82.7C46.3142 82.7 46.7102 82.854 47.0182 83.162C47.3336 83.4627 47.4912 83.8807 47.4912 84.416C47.4912 84.9513 47.3336 85.373 47.0182 85.681C46.7102 85.989 46.3142 86.143 45.8302 86.143C45.3389 86.143 44.9356 85.989 44.6202 85.681C44.3122 85.373 44.1582 84.9513 44.1582 84.416ZM45.8192 83.459C45.3572 83.459 45.1262 83.778 45.1262 84.416C45.1262 85.054 45.3572 85.373 45.8192 85.373C46.2812 85.373 46.5122 85.054 46.5122 84.416C46.5122 83.778 46.2812 83.459 45.8192 83.459ZM2.39004 96.988H4.97504V98H1.13604V90.355H2.39004V96.988ZM7.27773 91.367V93.611H9.91773V94.634H7.27773V96.977H10.2477V98H6.02373V90.344H10.2477V91.367H7.27773ZM14.3113 98.077C13.798 98.077 13.336 97.989 12.9253 97.813C12.5146 97.6297 12.192 97.373 11.9573 97.043C11.7226 96.713 11.6053 96.328 11.6053 95.888H12.9473C12.9766 96.218 13.105 96.4893 13.3323 96.702C13.567 96.9147 13.8933 97.021 14.3113 97.021C14.744 97.021 15.0813 96.9183 15.3233 96.713C15.5653 96.5003 15.6863 96.229 15.6863 95.899C15.6863 95.6423 15.6093 95.4333 15.4553 95.272C15.3086 95.1107 15.1216 94.986 14.8943 94.898C14.6743 94.81 14.3663 94.7147 13.9703 94.612C13.4716 94.48 13.0646 94.348 12.7493 94.216C12.4413 94.0767 12.1773 93.864 11.9573 93.578C11.7373 93.292 11.6273 92.9107 11.6273 92.434C11.6273 91.994 11.7373 91.609 11.9573 91.279C12.1773 90.949 12.4853 90.696 12.8813 90.52C13.2773 90.344 13.7356 90.256 14.2563 90.256C14.997 90.256 15.602 90.443 16.0713 90.817C16.548 91.1837 16.812 91.6897 16.8633 92.335H15.4773C15.4553 92.0563 15.3233 91.818 15.0813 91.62C14.8393 91.422 14.5203 91.323 14.1243 91.323C13.765 91.323 13.4716 91.4147 13.2443 91.598C13.017 91.7813 12.9033 92.0453 12.9033 92.39C12.9033 92.6247 12.973 92.819 13.1123 92.973C13.259 93.1197 13.4423 93.237 13.6623 93.325C13.8823 93.413 14.183 93.5083 14.5643 93.611C15.0703 93.7503 15.481 93.8897 15.7963 94.029C16.119 94.1683 16.3903 94.3847 16.6103 94.678C16.8376 94.964 16.9513 95.349 16.9513 95.833C16.9513 96.2217 16.845 96.5883 16.6323 96.933C16.427 97.2777 16.1226 97.5563 15.7193 97.769C15.3233 97.9743 14.854 98.077 14.3113 98.077ZM20.95 98.077C20.4366 98.077 19.9746 97.989 19.564 97.813C19.1533 97.6297 18.8306 97.373 18.596 97.043C18.3613 96.713 18.244 96.328 18.244 95.888H19.586C19.6153 96.218 19.7436 96.4893 19.971 96.702C20.2056 96.9147 20.532 97.021 20.95 97.021C21.3826 97.021 21.72 96.9183 21.962 96.713C22.204 96.5003 22.325 96.229 22.325 95.899C22.325 95.6423 22.248 95.4333 22.094 95.272C21.9473 95.1107 21.7603 94.986 21.533 94.898C21.313 94.81 21.005 94.7147 20.609 94.612C20.1103 94.48 19.7033 94.348 19.388 94.216C19.08 94.0767 18.816 93.864 18.596 93.578C18.376 93.292 18.266 92.9107 18.266 92.434C18.266 91.994 18.376 91.609 18.596 91.279C18.816 90.949 19.124 90.696 19.52 90.52C19.916 90.344 20.3743 90.256 20.895 90.256C21.6356 90.256 22.2406 90.443 22.71 90.817C23.1866 91.1837 23.4506 91.6897 23.502 92.335H22.116C22.094 92.0563 21.962 91.818 21.72 91.62C21.478 91.422 21.159 91.323 20.763 91.323C20.4036 91.323 20.1103 91.4147 19.883 91.598C19.6556 91.7813 19.542 92.0453 19.542 92.39C19.542 92.6247 19.6116 92.819 19.751 92.973C19.8976 93.1197 20.081 93.237 20.301 93.325C20.521 93.413 20.8216 93.5083 21.203 93.611C21.709 93.7503 22.1196 93.8897 22.435 94.029C22.7576 94.1683 23.029 94.3847 23.249 94.678C23.4763 94.964 23.59 95.349 23.59 95.833C23.59 96.2217 23.4836 96.5883 23.271 96.933C23.0656 97.2777 22.7613 97.5563 22.358 97.769C21.962 97.9743 21.4926 98.077 20.95 98.077ZM37.8821 90.355L35.6161 98H34.1971L32.5911 92.214L30.8861 98L29.4781 98.011L27.3111 90.355H28.6421L30.2261 96.581L31.9421 90.355H33.3501L34.9451 96.548L36.5401 90.355H37.8821ZM43.5253 96.438H40.3243L39.7743 98H38.4653L41.2043 90.344H42.6563L45.3953 98H44.0753L43.5253 96.438ZM43.1733 95.415L41.9303 91.862L40.6763 95.415H43.1733ZM51.5252 90.355V91.378H49.4902V98H48.2362V91.378H46.1902V90.355H51.5252ZM54.0492 91.367V93.611H56.6892V94.634H54.0492V96.977H57.0192V98H52.7952V90.344H57.0192V91.367H54.0492ZM62.5348 98L60.7748 94.942H59.8178V98H58.5638V90.355H61.2038C61.7904 90.355 62.2854 90.4577 62.6888 90.663C63.0994 90.8683 63.4038 91.1433 63.6018 91.488C63.8071 91.8327 63.9098 92.2177 63.9098 92.643C63.9098 93.1417 63.7631 93.5963 63.4698 94.007C63.1838 94.4103 62.7401 94.6853 62.1388 94.832L64.0308 98H62.5348ZM59.8178 93.941H61.2038C61.6731 93.941 62.0251 93.8237 62.2598 93.589C62.5018 93.3543 62.6228 93.039 62.6228 92.643C62.6228 92.247 62.5054 91.939 62.2708 91.719C62.0361 91.4917 61.6804 91.378 61.2038 91.378H59.8178V93.941Z" fill="black"/>
<path d="M46.7 46.6976C46.7 51.9747 44.7699 55.5023 42.1314 57.7342C39.4507 60.0017 35.9146 61.0333 32.6 61.0333C29.2854 61.0333 25.7493 60.0017 23.0686 57.7342C20.4301 55.5023 18.5 51.9747 18.5 46.6976C18.5 44.9872 19.1705 42.6578 20.3618 39.9341C21.5366 37.2483 23.1487 34.3309 24.8805 31.4934C27.6716 26.9203 30.7198 22.6403 32.6433 19.9715C34.6378 22.6226 37.6954 26.9947 40.4611 31.6323C42.1676 34.4938 43.7444 37.4257 44.8901 40.0956C46.0538 42.8077 46.7 45.0869 46.7 46.6976Z" stroke="black" stroke-width="3"/>
<path d="M40.8 11.0608C40.8 12.538 40.2671 13.4686 39.5849 14.0456C38.8748 14.6463 37.9174 14.9333 37 14.9333C36.0826 14.9333 35.1252 14.6463 34.415 14.0456C33.7328 13.4686 33.2 12.538 33.2 11.0608C33.2 10.6491 33.3687 10.0162 33.7277 9.19549C34.0756 8.40011 34.558 7.52545 35.0843 6.66308C35.7473 5.57685 36.458 4.54496 37.0188 3.75475C37.5857 4.54381 38.2981 5.59753 38.9563 6.70111C39.4747 7.57034 39.947 8.45008 40.2867 9.24173C40.6384 10.0615 40.8 10.6792 40.8 11.0608Z" stroke="black" stroke-width="2"/>
<path d="M51.2 24.9473C51.2 26.7524 50.546 27.9114 49.6908 28.6348C48.8075 29.382 47.6251 29.7334 46.5 29.7334C45.375 29.7334 44.1926 29.382 43.3093 28.6348C42.4541 27.9114 41.8 26.7524 41.8 24.9473C41.8 24.4185 42.0135 23.6377 42.4425 22.6571C42.8603 21.7018 43.4379 20.6551 44.0652 19.6273C44.9164 18.2326 45.8338 16.913 46.5213 15.9496C47.2196 16.9099 48.1395 18.2576 48.9842 19.6741C49.6021 20.7102 50.1675 21.7627 50.5753 22.7132C50.9953 23.6918 51.2 24.4544 51.2 24.9473Z" stroke="black" stroke-width="2"/>
</svg>
