<svg width="99" height="22" viewBox="0 0 99 22" fill="none" xmlns="http://www.w3.org/2000/svg">
<path fill-rule="evenodd" clip-rule="evenodd" d="M6.58716 0C5.75362 0 4.95422 0.318704 4.36482 0.886002C3.77542 1.4533 3.4443 2.22272 3.4443 3.025V3.5123C2.54023 3.59622 1.63889 3.70554 0.741444 3.8401C0.628585 3.8549 0.519922 3.8912 0.421806 3.94688C0.323689 4.00256 0.238086 4.0765 0.169999 4.16439C0.101913 4.25228 0.0527076 4.35234 0.0252598 4.45874C-0.00218806 4.56514 -0.00732819 4.67574 0.0101397 4.78407C0.0276075 4.8924 0.0673329 4.9963 0.126995 5.08969C0.186657 5.18307 0.265058 5.26408 0.357618 5.32797C0.450177 5.39186 0.555039 5.43735 0.666074 5.46179C0.777109 5.48623 0.892091 5.48912 1.0043 5.4703L1.17459 5.4461L2.13573 17.0159C2.19865 17.774 2.55596 18.4815 3.13648 18.9974C3.717 19.5134 4.47814 19.7999 5.2683 19.8H10.762C11.5522 19.8002 12.3135 19.514 12.8942 18.9982C13.4749 18.4825 13.8325 17.7751 13.8957 17.017L14.8569 5.445L15.0272 5.4703C15.2497 5.49948 15.4752 5.44343 15.6552 5.31423C15.8353 5.18502 15.9554 4.99296 15.9899 4.77937C16.0243 4.56578 15.9703 4.34771 15.8394 4.17206C15.7085 3.99641 15.5112 3.87721 15.29 3.8401C14.3925 3.70566 13.4912 3.59635 12.5872 3.5123V3.025C12.5872 2.22272 12.256 1.4533 11.6666 0.886002C11.0772 0.318704 10.2778 0 9.4443 0H6.58716ZM8.01573 3.3C8.97573 3.3 9.92773 3.3275 10.8729 3.3825V3.025C10.8729 2.266 10.2329 1.65 9.4443 1.65H6.58716C5.79859 1.65 5.15859 2.266 5.15859 3.025V3.3825C6.10373 3.3275 7.05573 3.3 8.01573 3.3ZM6.39287 7.392C6.38378 7.1732 6.28475 6.96683 6.11758 6.8183C5.9504 6.66977 5.72877 6.59125 5.50144 6.6C5.27411 6.60875 5.05971 6.70406 4.90539 6.86497C4.75108 7.02588 4.66949 7.2392 4.67859 7.458L5.02144 15.708C5.02595 15.8163 5.05257 15.9228 5.09981 16.0212C5.14704 16.1196 5.21396 16.2082 5.29674 16.2817C5.37951 16.3552 5.47653 16.4124 5.58225 16.4498C5.68796 16.4873 5.80031 16.5043 5.91287 16.5C6.02543 16.4957 6.13601 16.47 6.23828 16.4246C6.34055 16.3791 6.43251 16.3147 6.50892 16.235C6.58533 16.1554 6.64469 16.062 6.6836 15.9602C6.72252 15.8585 6.74023 15.7503 6.73573 15.642L6.39287 7.392ZM11.3529 7.458C11.3574 7.34966 11.3397 7.24153 11.3007 7.13977C11.2618 7.03802 11.2025 6.94464 11.1261 6.86497C11.0497 6.7853 10.9577 6.72089 10.8554 6.67543C10.7531 6.62996 10.6426 6.60433 10.53 6.6C10.3027 6.59125 10.0811 6.66977 9.91388 6.8183C9.74671 6.96683 9.64768 7.1732 9.63859 7.392L9.29573 15.642C9.29123 15.7503 9.30894 15.8585 9.34785 15.9602C9.38677 16.062 9.44613 16.1554 9.52254 16.235C9.59894 16.3147 9.69091 16.3791 9.79318 16.4246C9.89545 16.47 10.006 16.4957 10.1186 16.5C10.2311 16.5043 10.3435 16.4873 10.4492 16.4498C10.5549 16.4124 10.6519 16.3552 10.7347 16.2817C10.8175 16.2082 10.8844 16.1196 10.9316 16.0212C10.9789 15.9228 11.0055 15.8163 11.01 15.708L11.3529 7.458Z" fill="#9B0000"/>
<path d="M24.646 7.558V10.414H28.006V11.716H24.646V14.698H28.426V16H23.05V6.256H28.426V7.558H24.646ZM39.7298 8.16C40.3365 8.16 40.8778 8.286 41.3538 8.538C41.8391 8.79 42.2171 9.16333 42.4878 9.658C42.7678 10.1527 42.9078 10.75 42.9078 11.45V16H41.3258V11.688C41.3258 10.9973 41.1531 10.47 40.8078 10.106C40.4625 9.73267 39.9911 9.546 39.3938 9.546C38.7965 9.546 38.3205 9.73267 37.9658 10.106C37.6205 10.47 37.4478 10.9973 37.4478 11.688V16H35.8658V11.688C35.8658 10.9973 35.6931 10.47 35.3478 10.106C35.0025 9.73267 34.5311 9.546 33.9338 9.546C33.3365 9.546 32.8605 9.73267 32.5058 10.106C32.1605 10.47 31.9878 10.9973 31.9878 11.688V16H30.3918V8.286H31.9878V9.168C32.2491 8.85067 32.5805 8.60333 32.9818 8.426C33.3831 8.24867 33.8125 8.16 34.2698 8.16C34.8858 8.16 35.4365 8.29067 35.9218 8.552C36.4071 8.81333 36.7805 9.19133 37.0418 9.686C37.2751 9.21933 37.6391 8.85067 38.1338 8.58C38.6285 8.3 39.1605 8.16 39.7298 8.16ZM46.5347 9.42C46.8053 9.06533 47.174 8.76667 47.6407 8.524C48.1073 8.28133 48.6347 8.16 49.2227 8.16C49.8947 8.16 50.506 8.328 51.0567 8.664C51.6167 8.99067 52.0553 9.45267 52.3727 10.05C52.69 10.6473 52.8487 11.3333 52.8487 12.108C52.8487 12.8827 52.69 13.578 52.3727 14.194C52.0553 14.8007 51.6167 15.2767 51.0567 15.622C50.506 15.958 49.8947 16.126 49.2227 16.126C48.6347 16.126 48.112 16.0093 47.6547 15.776C47.1973 15.5333 46.824 15.2347 46.5347 14.88V19.668H44.9387V8.286H46.5347V9.42ZM51.2247 12.108C51.2247 11.576 51.1127 11.1187 50.8887 10.736C50.674 10.344 50.3847 10.05 50.0207 9.854C49.666 9.64867 49.2833 9.546 48.8727 9.546C48.4713 9.546 48.0887 9.64867 47.7247 9.854C47.37 10.0593 47.0807 10.358 46.8567 10.75C46.642 11.142 46.5347 11.604 46.5347 12.136C46.5347 12.668 46.642 13.1347 46.8567 13.536C47.0807 13.928 47.37 14.2267 47.7247 14.432C48.0887 14.6373 48.4713 14.74 48.8727 14.74C49.2833 14.74 49.666 14.6373 50.0207 14.432C50.3847 14.2173 50.674 13.9093 50.8887 13.508C51.1127 13.1067 51.2247 12.64 51.2247 12.108ZM56.289 9.588V13.858C56.289 14.1473 56.3543 14.3573 56.485 14.488C56.625 14.6093 56.8583 14.67 57.185 14.67H58.165V16H56.905C56.1863 16 55.6356 15.832 55.253 15.496C54.8703 15.16 54.679 14.614 54.679 13.858V9.588H53.769V8.286H54.679V6.368H56.289V8.286H58.165V9.588H56.289ZM66.5799 8.286L61.8479 19.626H60.1959L61.7639 15.874L58.7259 8.286H60.5039L62.6739 14.166L64.9279 8.286H66.5799ZM70.8891 12.136C70.8891 11.3427 71.0478 10.6473 71.3651 10.05C71.6918 9.44333 72.1398 8.97667 72.7091 8.65C73.2784 8.32333 73.9318 8.16 74.6691 8.16C75.6024 8.16 76.3724 8.384 76.9791 8.832C77.5951 9.27067 78.0104 9.90067 78.2251 10.722H76.5031C76.3631 10.3393 76.1391 10.0407 75.8311 9.826C75.5231 9.61133 75.1358 9.504 74.6691 9.504C74.0158 9.504 73.4931 9.73733 73.1011 10.204C72.7184 10.6613 72.5271 11.3053 72.5271 12.136C72.5271 12.9667 72.7184 13.6153 73.1011 14.082C73.4931 14.5487 74.0158 14.782 74.6691 14.782C75.5931 14.782 76.2044 14.376 76.5031 13.564H78.2251C78.0011 14.348 77.5811 14.9733 76.9651 15.44C76.3491 15.8973 75.5838 16.126 74.6691 16.126C73.9318 16.126 73.2784 15.9627 72.7091 15.636C72.1398 15.3 71.6918 14.8333 71.3651 14.236C71.0478 13.6293 70.8891 12.9293 70.8891 12.136ZM79.2836 12.108C79.2836 11.3333 79.4423 10.6473 79.7596 10.05C80.0863 9.45267 80.525 8.99067 81.0756 8.664C81.6356 8.328 82.2516 8.16 82.9236 8.16C83.5303 8.16 84.0576 8.28133 84.5056 8.524C84.963 8.75733 85.327 9.05133 85.5976 9.406V8.286H87.2076V16H85.5976V14.852C85.327 15.216 84.9583 15.5193 84.4916 15.762C84.025 16.0047 83.493 16.126 82.8956 16.126C82.233 16.126 81.6263 15.958 81.0756 15.622C80.525 15.2767 80.0863 14.8007 79.7596 14.194C79.4423 13.578 79.2836 12.8827 79.2836 12.108ZM85.5976 12.136C85.5976 11.604 85.4856 11.142 85.2616 10.75C85.047 10.358 84.7623 10.0593 84.4076 9.854C84.053 9.64867 83.6703 9.546 83.2596 9.546C82.849 9.546 82.4663 9.64867 82.1116 9.854C81.757 10.05 81.4676 10.344 81.2436 10.736C81.029 11.1187 80.9216 11.576 80.9216 12.108C80.9216 12.64 81.029 13.1067 81.2436 13.508C81.4676 13.9093 81.757 14.2173 82.1116 14.432C82.4756 14.6373 82.8583 14.74 83.2596 14.74C83.6703 14.74 84.053 14.6373 84.4076 14.432C84.7623 14.2267 85.047 13.928 85.2616 13.536C85.4856 13.1347 85.5976 12.668 85.5976 12.136ZM90.8999 9.406C91.1332 9.014 91.4412 8.71067 91.8239 8.496C92.2159 8.272 92.6779 8.16 93.2099 8.16V9.812H92.8039C92.1786 9.812 91.7026 9.97067 91.3759 10.288C91.0586 10.6053 90.8999 11.156 90.8999 11.94V16H89.3039V8.286H90.8999V9.406ZM96.539 9.588V13.858C96.539 14.1473 96.6043 14.3573 96.735 14.488C96.875 14.6093 97.1083 14.67 97.435 14.67H98.415V16H97.155C96.4363 16 95.8856 15.832 95.503 15.496C95.1203 15.16 94.929 14.614 94.929 13.858V9.588H94.019V8.286H94.929V6.368H96.539V8.286H98.415V9.588H96.539Z" fill="#9B0000"/>
</svg>
