<svg width="32" height="32" viewBox="0 0 32 32" fill="none" xmlns="http://www.w3.org/2000/svg">
<path d="M31.1667 15.6667C31.1667 24.2273 24.2274 31.1667 15.6667 31.1667C7.1061 31.1667 0.166748 24.2273 0.166748 15.6667C0.166748 7.10601 7.1061 0.166664 15.6667 0.166664C24.2274 0.166664 31.1667 7.10601 31.1667 15.6667ZM13.1108 10.9392L13.1418 10.9051C13.3663 10.6468 13.619 10.4144 13.8951 10.2122C14.4314 9.82161 15.163 9.46666 16.0527 9.46666C17.5515 9.46666 18.7652 10.6803 18.7652 12.1792C18.7652 13.0069 18.4645 13.5153 17.9483 13.9725C17.4523 14.4096 16.823 14.7506 16.0263 15.1815L15.4947 15.4714C14.512 16.0108 13.3712 16.6928 12.4923 17.7623C11.5809 18.8705 11.0167 20.3105 11.0167 22.2542C11.0167 22.8959 11.5375 23.4167 12.1792 23.4167H19.9292C20.2376 23.4167 20.5332 23.2942 20.7513 23.0762C20.9693 22.8582 21.0917 22.5625 21.0917 22.2542C21.0917 21.9458 20.9693 21.6502 20.7513 21.4322C20.5332 21.2141 20.2376 21.0917 19.9292 21.0917H13.4425C13.5959 20.2857 13.9075 19.7013 14.2888 19.2379C14.8623 18.5404 15.659 18.0335 16.6138 17.5081L17.0571 17.2694C17.8553 16.84 18.7729 16.3456 19.4875 15.7147C20.4237 14.887 21.0917 13.7726 21.0902 12.1792C21.0902 11.5176 20.9599 10.8626 20.7067 10.2514C20.4536 9.64022 20.0825 9.08489 19.6147 8.61711C19.147 8.14934 18.5916 7.77828 17.9805 7.52512C17.3693 7.27196 16.7142 7.14166 16.0527 7.14166C14.5228 7.14166 13.3185 7.75546 12.5249 8.33361C12.0957 8.64714 11.704 9.00913 11.3577 9.41241C11.3221 9.45443 11.2874 9.49733 11.2539 9.54106V9.54416H11.2492C11.0636 9.79061 10.9835 10.1007 11.0266 10.4062C11.0696 10.7117 11.2322 10.9876 11.4786 11.1732C11.7251 11.3588 12.0352 11.4389 12.3407 11.3959C12.6462 11.3529 12.9221 11.1903 13.1077 10.9438L13.1092 10.9407L13.1108 10.9392Z" fill="black"/>
</svg>
