<svg width="31" height="31" viewBox="0 0 31 31" fill="none" xmlns="http://www.w3.org/2000/svg">
<path d="M0 15.5C-3.03311e-08 13.4645 0.400919 11.449 1.17987 9.56841C1.95881 7.68786 3.10054 5.97915 4.53984 4.53984C5.97915 3.10054 7.68786 1.95882 9.56841 1.17987C11.449 0.400919 13.4645 0 15.5 0C17.5355 0 19.551 0.400919 21.4316 1.17987C23.3121 1.95882 25.0208 3.10054 26.4602 4.53984C27.8995 5.97915 29.0412 7.68786 29.8201 9.56841C30.5991 11.449 31 13.4645 31 15.5C31 19.6109 29.367 23.5533 26.4602 26.4602C23.5533 29.367 19.6109 31 15.5 31C11.3891 31 7.44666 29.367 4.53984 26.4602C1.63303 23.5533 6.12565e-08 19.6109 0 15.5ZM18.7292 10.3333C19.0717 10.3333 19.4003 10.1972 19.6425 9.95501C19.8847 9.71278 20.0208 9.38424 20.0208 9.04167C20.0208 8.69909 19.8847 8.37055 19.6425 8.12832C19.4003 7.88609 19.0717 7.75 18.7292 7.75H12.9192C12.6045 7.75009 12.3006 7.86512 12.0646 8.07347C11.8287 8.28182 11.6769 8.56916 11.6379 8.8815L10.9921 14.0482C10.9692 14.2314 10.9858 14.4174 11.0409 14.5936C11.0959 14.7699 11.1882 14.9323 11.3113 15.0699C11.4344 15.2075 11.5857 15.3171 11.7547 15.3913C11.9238 15.4655 12.1069 15.5025 12.2915 15.5H12.4284L12.803 15.4948C13.6202 15.4895 14.4374 15.4913 15.2546 15.5C15.47 15.5049 15.6853 15.5135 15.9004 15.5258L15.9469 15.531H15.9624C16.5029 15.6076 17.0152 15.8199 17.4514 16.1481C17.8875 16.4764 18.2334 16.9099 18.4566 17.4081C18.6797 17.9063 18.773 18.4529 18.7276 18.9969C18.6821 19.5409 18.4996 20.0645 18.1969 20.5188C17.8942 20.9731 17.4812 21.3432 16.9967 21.5946C16.5121 21.846 15.9717 21.9705 15.426 21.9563C14.8803 21.9422 14.3471 21.79 13.8762 21.5138C13.4052 21.2377 13.012 20.8467 12.7332 20.3773C12.651 20.2234 12.5384 20.0878 12.4023 19.9786C12.2661 19.8694 12.1093 19.7889 11.9412 19.742C11.7731 19.6951 11.5973 19.6828 11.4243 19.7057C11.2513 19.7287 11.0847 19.7864 10.9347 19.8755C10.7846 19.9646 10.6542 20.0832 10.5512 20.2241C10.4482 20.365 10.3749 20.5253 10.3356 20.6953C10.2963 20.8653 10.2919 21.0416 10.3225 21.2134C10.3532 21.3851 10.4184 21.5489 10.5142 21.6948C11.0161 22.5399 11.724 23.2439 12.5719 23.741C13.4198 24.2381 14.3799 24.5121 15.3624 24.5373C16.3449 24.5626 17.3178 24.3383 18.1901 23.8854C19.0624 23.4325 19.8056 22.7658 20.3502 21.9476C20.8948 21.1295 21.2231 20.1866 21.3043 19.2071C21.3856 18.2276 21.2171 17.2435 20.8146 16.3468C20.4122 15.4501 19.789 14.6701 19.0032 14.0797C18.2174 13.4893 17.2948 13.1078 16.3215 12.9709C15.9056 12.9141 14.818 12.9063 13.981 12.9063H13.7382L14.0611 10.3333H18.7292Z" fill="black"/>
</svg>
