<svg width="32" height="32" viewBox="0 0 32 32" fill="none" xmlns="http://www.w3.org/2000/svg">
<path fill-rule="evenodd" clip-rule="evenodd" d="M0.583252 16.0833C0.583252 7.52266 7.5226 0.583313 16.0833 0.583313C24.6439 0.583313 31.5833 7.52266 31.5833 16.0833C31.5833 24.644 24.6439 31.5833 16.0833 31.5833C7.5226 31.5833 0.583252 24.644 0.583252 16.0833ZM11.4333 6.78331C11.0222 6.78331 10.6279 6.94662 10.3372 7.2373C10.0466 7.52798 9.88325 7.92223 9.88325 8.33331C9.88325 8.7444 10.0466 9.13865 10.3372 9.42933C10.6279 9.72001 11.0222 9.88331 11.4333 9.88331H18.4439L13.0949 23.2583C12.9498 23.6384 12.9601 24.0603 13.1235 24.433C13.2868 24.8056 13.5901 25.0991 13.9679 25.2501C14.3458 25.401 14.7678 25.3974 15.143 25.2399C15.5181 25.0824 15.8163 24.7838 15.9732 24.4084L22.1732 8.90836C22.2672 8.67315 22.3021 8.41848 22.2748 8.16666C22.2476 7.91483 22.1591 7.67352 22.017 7.46383C21.8749 7.25414 21.6836 7.08247 21.4598 6.96384C21.236 6.8452 20.9865 6.78322 20.7333 6.78331H11.4333Z" fill="black"/>
</svg>
