<svg width="32" height="32" viewBox="0 0 32 32" fill="none" xmlns="http://www.w3.org/2000/svg">
<path d="M31.5833 16.0833C31.5833 24.644 24.6439 31.5833 16.0833 31.5833C7.5226 31.5833 0.583252 24.644 0.583252 16.0833C0.583252 7.52268 7.5226 0.583328 16.0833 0.583328C24.6439 0.583328 31.5833 7.52268 31.5833 16.0833ZM19.9583 9.39973C19.9583 7.69938 17.7418 7.04683 16.8211 8.47593L10.3777 18.4626C10.2343 18.6849 10.1534 18.9418 10.1436 19.2062C10.1338 19.4707 10.1954 19.7328 10.322 19.9652C10.4485 20.1976 10.6354 20.3915 10.8628 20.5267C11.0903 20.6619 11.35 20.7332 11.6146 20.7333H17.6333V22.6708C17.6333 22.9791 17.7557 23.2748 17.9737 23.4928C18.1918 23.7109 18.4874 23.8333 18.7958 23.8333C19.1041 23.8333 19.3998 23.7109 19.6178 23.4928C19.8358 23.2748 19.9583 22.9791 19.9583 22.6708V20.7333H21.1208C21.4291 20.7333 21.7248 20.6108 21.9428 20.3928C22.1608 20.1748 22.2833 19.8791 22.2833 19.5708C22.2833 19.2625 22.1608 18.9668 21.9428 18.7488C21.7248 18.5308 21.4291 18.4083 21.1208 18.4083H19.9583V9.39973ZM17.6333 11.5046V18.4083H13.1786L17.6333 11.5046Z" fill="black"/>
</svg>
