<svg width="32" height="32" viewBox="0 0 32 32" fill="none" xmlns="http://www.w3.org/2000/svg">
<path fill-rule="evenodd" clip-rule="evenodd" d="M0.583252 16.0833C0.583252 7.52269 7.5226 0.583344 16.0833 0.583344C24.6439 0.583344 31.5833 7.52269 31.5833 16.0833C31.5833 24.644 24.6439 31.5833 16.0833 31.5833C7.5226 31.5833 0.583252 24.644 0.583252 16.0833ZM13.2375 22.9839C13.0259 23.3275 12.9566 23.7401 13.0444 24.1339C13.1322 24.5277 13.3701 24.8718 13.7075 25.093C14.045 25.3142 14.4554 25.3951 14.8516 25.3185C15.2477 25.2419 15.5984 25.0138 15.8291 24.6827L21.237 16.4321C21.9975 15.2957 22.361 13.9397 22.2708 12.5753C22.1807 11.2108 21.6421 9.91448 20.7387 8.88797C19.8353 7.86145 18.618 7.16236 17.276 6.89953C15.9341 6.6367 14.543 6.82486 13.3191 7.43472C12.0952 8.04459 11.1073 9.04195 10.5091 10.2716C9.91089 11.5012 9.73596 12.8941 10.0115 14.2334C10.2871 15.5728 10.9977 16.7834 12.0328 17.677C13.0678 18.5706 14.3693 19.0969 15.7345 19.174L13.2375 22.9839ZM19.1833 12.9833C19.1833 13.8055 18.8566 14.594 18.2753 15.1754C17.6939 15.7567 16.9054 16.0833 16.0833 16.0833C15.2611 16.0833 14.4726 15.7567 13.8912 15.1754C13.3099 14.594 12.9833 13.8055 12.9833 12.9833C12.9833 12.1612 13.3099 11.3727 13.8912 10.7913C14.4726 10.21 15.2611 9.88334 16.0833 9.88334C16.9054 9.88334 17.6939 10.21 18.2753 10.7913C18.8566 11.3727 19.1833 12.1612 19.1833 12.9833Z" fill="black"/>
</svg>
