<svg width="31" height="31" viewBox="0 0 31 31" fill="none" xmlns="http://www.w3.org/2000/svg">
<path fill-rule="evenodd" clip-rule="evenodd" d="M0 15.5C0 6.93935 6.93935 0 15.5 0C24.0606 0 31 6.93935 31 15.5C31 24.0606 24.0606 31 15.5 31C6.93935 31 0 24.0606 0 15.5ZM17.825 7.75C17.8249 7.44349 17.734 7.14387 17.5637 6.88904C17.3934 6.6342 17.1513 6.43559 16.8681 6.3183C16.5849 6.20101 16.2733 6.17032 15.9727 6.23009C15.6721 6.28988 15.3959 6.43745 15.1791 6.65415L12.0792 9.75415C11.7968 10.0465 11.6406 10.438 11.6441 10.8444C11.6476 11.2508 11.8106 11.6396 12.098 11.927C12.3854 12.2144 12.7742 12.3774 13.1806 12.3809C13.587 12.3844 13.9785 12.2282 14.2708 11.9458L14.725 11.4917V23.25C14.725 23.6611 14.8883 24.0553 15.179 24.346C15.4697 24.6367 15.8639 24.8 16.275 24.8C16.6861 24.8 17.0803 24.6367 17.371 24.346C17.6617 24.0553 17.825 23.6611 17.825 23.25V7.75Z" fill="black"/>
</svg>
