<svg width="32" height="32" viewBox="0 0 32 32" fill="none" xmlns="http://www.w3.org/2000/svg">
<path fill-rule="evenodd" clip-rule="evenodd" d="M0.583252 16.0833C0.583252 7.52268 7.5226 0.583328 16.0833 0.583328C24.6439 0.583328 31.5833 7.52268 31.5833 16.0833C31.5833 24.644 24.6439 31.5833 16.0833 31.5833C7.5226 31.5833 0.583252 24.644 0.583252 16.0833ZM12.9833 6.78333C12.5722 6.78333 12.1779 6.94663 11.8872 7.23731C11.5966 7.52799 11.4333 7.92224 11.4333 8.33333C11.4333 8.74441 11.5966 9.13866 11.8872 9.42934C12.1779 9.72002 12.5722 9.88333 12.9833 9.88333H17.6333L14.8433 13.6033C14.6705 13.8336 14.5654 14.1074 14.5395 14.3941C14.5137 14.6808 14.5682 14.969 14.6969 15.2265C14.8256 15.484 15.0235 15.7005 15.2684 15.8518C15.5132 16.0032 15.7954 16.0833 16.0833 16.0833C16.5857 16.0833 17.0807 16.2055 17.5255 16.4392C17.9702 16.673 18.3515 17.0114 18.6365 17.4252C18.9215 17.8391 19.1016 18.316 19.1613 18.8149C19.221 19.3138 19.1586 19.8197 18.9793 20.2892C18.8001 20.7586 18.5094 21.1774 18.1324 21.5095C17.7553 21.8417 17.3032 22.0772 16.8149 22.1957C16.3266 22.3143 15.8169 22.3125 15.3295 22.1903C14.8421 22.0681 14.3917 21.8293 14.0171 21.4944C13.8658 21.3564 13.6887 21.2497 13.496 21.1806C13.3032 21.1114 13.0987 21.0812 12.8942 21.0915C12.6897 21.1019 12.4893 21.1526 12.3045 21.2409C12.1198 21.3291 11.9543 21.4531 11.8177 21.6056C11.6812 21.7582 11.5762 21.9363 11.5088 22.1297C11.4415 22.323 11.4131 22.5278 11.4253 22.7322C11.4376 22.9366 11.4902 23.1365 11.5801 23.3205C11.6701 23.5044 11.7956 23.6687 11.9494 23.8039C12.6123 24.3962 13.3948 24.839 14.2439 25.1024C15.093 25.3657 15.9888 25.4434 16.8705 25.3301C17.7523 25.2168 18.5993 24.9152 19.3543 24.4458C20.1092 23.9764 20.7544 23.3501 21.246 22.6095C21.7377 21.8688 22.0643 21.0311 22.2037 20.1531C22.3431 19.2751 22.2921 18.3774 22.0542 17.5209C21.8162 16.6643 21.3968 15.869 20.8244 15.1888C20.2521 14.5086 19.5401 13.9594 18.7369 13.5785L21.9733 9.26333C22.146 9.03304 22.2511 8.75922 22.277 8.47253C22.3028 8.18584 22.2483 7.89761 22.1196 7.64015C21.9909 7.38268 21.793 7.16615 21.5481 7.01482C21.3033 6.86349 21.0211 6.78333 20.7333 6.78333H12.9833Z" fill="black"/>
</svg>
