<svg width="32" height="32" viewBox="0 0 32 32" fill="none" xmlns="http://www.w3.org/2000/svg">
<path fill-rule="evenodd" clip-rule="evenodd" d="M0.583252 16.0833C0.583252 7.52266 7.5226 0.583313 16.0833 0.583313C24.6439 0.583313 31.5833 7.52266 31.5833 16.0833C31.5833 24.644 24.6439 31.5833 16.0833 31.5833C7.5226 31.5833 0.583252 24.644 0.583252 16.0833ZM16.0833 9.88331C15.6722 9.88331 15.2779 10.0466 14.9872 10.3373C14.6966 10.628 14.5333 11.0222 14.5333 11.4333C14.5333 11.8444 14.6966 12.2386 14.9872 12.5293C15.2779 12.82 15.6722 12.9833 16.0833 12.9833C16.4943 12.9833 16.8886 12.82 17.1793 12.5293C17.4699 12.2386 17.6333 11.8444 17.6333 11.4333C17.6333 11.0222 17.4699 10.628 17.1793 10.3373C16.8886 10.0466 16.4943 9.88331 16.0833 9.88331ZM20.7333 11.4333C20.7333 12.4796 20.3876 13.4468 19.8033 14.2233C20.8443 15.0041 21.6132 16.0926 22.0012 17.3347C22.3892 18.5768 22.3766 19.9094 21.9651 21.1439C21.5536 22.3784 20.7641 23.4521 19.7085 24.213C18.6528 24.9739 17.3845 25.3833 16.0833 25.3833C14.782 25.3833 13.5137 24.9739 12.458 24.213C11.4024 23.4521 10.6129 22.3784 10.2014 21.1439C9.78992 19.9094 9.77727 18.5768 10.1653 17.3347C10.5533 16.0926 11.3222 15.0041 12.3633 14.2233C11.9212 13.6339 11.6255 12.9478 11.5006 12.2217C11.3757 11.4955 11.4251 10.7501 11.6448 10.0468C11.8645 9.34355 12.2481 8.70253 12.7642 8.17661C13.2802 7.6507 13.9138 7.25493 14.6128 7.02194C15.3118 6.78894 16.0561 6.72538 16.7845 6.83649C17.5129 6.94761 18.2044 7.23022 18.8022 7.66104C19.3999 8.09185 19.8867 8.65854 20.2224 9.3144C20.5582 9.97026 20.7333 10.6965 20.7333 11.4333ZM12.9833 19.1833C12.9833 18.3611 13.3099 17.5726 13.8912 16.9913C14.4726 16.4099 15.2611 16.0833 16.0833 16.0833C16.9054 16.0833 17.6939 16.4099 18.2753 16.9913C18.8566 17.5726 19.1833 18.3611 19.1833 19.1833C19.1833 20.0055 18.8566 20.794 18.2753 21.3753C17.6939 21.9567 16.9054 22.2833 16.0833 22.2833C15.2611 22.2833 14.4726 21.9567 13.8912 21.3753C13.3099 20.794 12.9833 20.0055 12.9833 19.1833Z" fill="black"/>
</svg>
