<svg width="32" height="32" viewBox="0 0 32 32" fill="none" xmlns="http://www.w3.org/2000/svg">
<path fill-rule="evenodd" clip-rule="evenodd" d="M0.583252 16.0833C0.583252 7.52269 7.5226 0.583344 16.0833 0.583344C24.6439 0.583344 31.5833 7.52269 31.5833 16.0833C31.5833 24.644 24.6439 31.5833 16.0833 31.5833C7.5226 31.5833 0.583252 24.644 0.583252 16.0833ZM18.9291 9.18274C19.0475 9.0127 19.1307 8.82064 19.1736 8.6179C19.2166 8.41516 19.2184 8.20586 19.1791 8.00239C19.1397 7.79892 19.06 7.60541 18.9446 7.4333C18.8291 7.26119 18.6803 7.11397 18.507 7.00036C18.3337 6.88675 18.1394 6.80904 17.9355 6.77185C17.7316 6.73465 17.5224 6.73872 17.3201 6.7838C17.1178 6.82889 16.9266 6.91408 16.7578 7.03434C16.5891 7.1546 16.4461 7.30748 16.3375 7.48394L10.9295 15.7346C10.169 16.871 9.80554 18.227 9.89566 19.5914C9.98579 20.9558 10.5245 22.2522 11.4278 23.2787C12.3312 24.3052 13.5486 25.0043 14.8905 25.2672C16.2324 25.53 17.6235 25.3418 18.8474 24.732C20.0713 24.1221 21.0592 23.1247 21.6574 21.8951C22.2556 20.6655 22.4305 19.2726 22.155 17.9333C21.8794 16.5939 21.1688 15.3832 20.1337 14.4897C19.0987 13.5961 17.7972 13.0698 16.432 12.9926L18.9291 9.18274ZM12.9833 19.1833C12.9833 18.3612 13.3099 17.5727 13.8912 16.9913C14.4726 16.41 15.2611 16.0833 16.0833 16.0833C16.9054 16.0833 17.6939 16.41 18.2753 16.9913C18.8566 17.5727 19.1833 18.3612 19.1833 19.1833C19.1833 20.0055 18.8566 20.794 18.2753 21.3754C17.6939 21.9567 16.9054 22.2833 16.0833 22.2833C15.2611 22.2833 14.4726 21.9567 13.8912 21.3754C13.3099 20.794 12.9833 20.0055 12.9833 19.1833Z" fill="black"/>
</svg>
