<svg width="112" height="19" viewBox="0 0 112 19" fill="none" xmlns="http://www.w3.org/2000/svg">
<path d="M8.23107 3.87039L8.23099 3.87053L7.90327 4.42867C7.87986 4.46858 7.85637 4.5089 7.83271 4.54953C7.54811 5.03819 7.23829 5.57016 6.73727 5.93224L6.73556 5.93347C6.23423 6.29449 5.63194 6.42192 5.07543 6.53966C5.02961 6.54935 4.9841 6.55898 4.93899 6.56867C4.93888 6.56869 4.93877 6.56871 4.93866 6.56873C4.93863 6.56874 4.9386 6.56875 4.93857 6.56876L4.303 6.70547L4.30256 6.70556C3.03182 6.97842 2.21889 7.15658 1.67448 7.36046C1.42966 7.45215 1.31204 7.52288 1.25965 7.56294C1.27872 7.62544 1.3319 7.74912 1.47238 7.96115C1.79126 8.44244 2.3424 9.05977 3.20901 10.022L3.20964 10.0227L3.64276 10.5043C3.64289 10.5045 3.64302 10.5046 3.64316 10.5048C3.67424 10.5393 3.70576 10.574 3.73755 10.6091C4.11519 11.0254 4.53151 11.4843 4.72327 12.0737C4.91667 12.6624 4.85204 13.2771 4.79326 13.836C4.78832 13.883 4.78342 13.9296 4.77872 13.9758L4.7786 13.9769L4.71273 14.6179C4.71271 14.6181 4.71269 14.6183 4.71266 14.6186C4.58189 15.9037 4.50173 16.7237 4.52878 17.2984C4.54107 17.5596 4.5728 17.6905 4.59467 17.7497C4.6586 17.7528 4.79724 17.7432 5.06089 17.6714C5.62223 17.5186 6.38543 17.1885 7.57503 16.6683L8.23107 3.87039ZM8.23107 3.87039C8.88599 2.75467 9.30702 2.0438 9.6697 1.5939C9.84183 1.38038 9.94781 1.29323 10 1.26002C10.0522 1.29323 10.1582 1.38038 10.3303 1.5939C10.693 2.0438 11.114 2.75467 11.7689 3.87039L11.769 3.87053L12.0967 4.42867C12.0968 4.42882 12.0969 4.42898 12.097 4.42913C12.1203 4.46889 12.1437 4.50906 12.1673 4.54953C12.4519 5.03819 12.7617 5.57016 13.2627 5.93223L13.9949 4.91912L13.2627 5.93224C13.7638 6.29438 14.3686 6.42209 14.9247 6.53952C14.9708 6.54926 15.0166 6.55893 15.062 6.56867C15.062 6.56867 15.062 6.56867 15.0621 6.56868C15.0623 6.56873 15.0625 6.56878 15.0628 6.56883L15.698 6.70546C15.698 6.70546 15.698 6.70547 15.698 6.70547C16.969 6.97888 17.7817 7.15699 18.3261 7.36084C18.5702 7.45227 18.6877 7.52282 18.7402 7.56284C18.721 7.62539 18.6677 7.74895 18.5276 7.96044C18.2087 8.44179 17.6576 9.05929 16.7912 10.0218C16.791 10.0219 16.7909 10.0221 16.7908 10.0222L16.3572 10.5034L16.3565 10.5042C16.3249 10.5393 16.2929 10.5746 16.2607 10.6103C15.8828 11.0276 15.4679 11.4857 15.2759 12.0722L15.2756 12.0733C15.0833 12.6621 15.1479 13.2757 15.2068 13.8362C15.2117 13.8829 15.2166 13.9292 15.2213 13.975L15.2214 13.9758L15.2873 14.6179C15.2873 14.618 15.2873 14.6181 15.2873 14.6182C15.4181 15.9035 15.4983 16.7237 15.4713 17.2985C15.4591 17.56 15.4274 17.6908 15.4056 17.7497C15.342 17.753 15.2035 17.7436 14.9394 17.6717C14.3782 17.5188 13.6154 17.1886 12.4259 16.6683L12.4246 16.6677L11.8301 16.4085C11.8299 16.4084 11.8297 16.4083 11.8294 16.4082C11.7886 16.3903 11.7476 16.3722 11.7063 16.3539C11.1836 16.1229 10.6202 15.8738 10 15.8738C9.38047 15.8738 8.81729 16.1224 8.29453 16.3532C8.25277 16.3716 8.21127 16.3899 8.17002 16.408C8.16984 16.4081 8.16967 16.4082 8.1695 16.4082L7.57524 16.6682L8.23107 3.87039ZM10.0395 1.2418C10.0393 1.24306 10.0325 1.24657 10.0197 1.24856C10.0333 1.24155 10.0397 1.24055 10.0395 1.2418ZM9.98029 1.24856C9.96752 1.24657 9.96071 1.24306 9.9605 1.2418C9.96028 1.24055 9.96667 1.24155 9.98029 1.24856ZM18.7493 7.51034C18.7504 7.5098 18.7511 7.51616 18.7483 7.53109C18.7468 7.51835 18.7482 7.51089 18.7493 7.51034ZM4.61701 17.7919C4.61642 17.7931 4.61182 17.7884 4.60495 17.7742C4.61415 17.7837 4.61759 17.7908 4.61701 17.7919ZM1.22231 7.59981C1.22116 7.59963 1.22418 7.59415 1.23483 7.5839C1.22878 7.59487 1.22346 7.59999 1.22231 7.59981ZM18.7777 7.59985C18.7766 7.60004 18.7712 7.59489 18.7652 7.58388C18.7759 7.59416 18.7789 7.59966 18.7777 7.59985ZM15.3835 17.7915C15.383 17.7904 15.3864 17.7833 15.3955 17.7739C15.3887 17.788 15.3841 17.7927 15.3835 17.7915ZM15.4317 17.7473C15.4429 17.7417 15.4502 17.7406 15.4511 17.7414C15.4519 17.7422 15.4463 17.745 15.4317 17.7473ZM4.54855 17.7415C4.54939 17.7406 4.55663 17.7417 4.56778 17.7472C4.55329 17.745 4.54772 17.7423 4.54855 17.7415ZM1.25071 7.51067C1.25179 7.51122 1.25319 7.51872 1.25167 7.5315C1.24887 7.51651 1.24963 7.51012 1.25071 7.51067Z" fill="#F2C75C" stroke="#F2C75C" stroke-width="2.5"/>
<path d="M31.2311 3.87039L31.231 3.87053L30.9033 4.42867C30.8799 4.46858 30.8564 4.5089 30.8327 4.54953C30.5481 5.03819 30.2383 5.57016 29.7373 5.93224L29.7356 5.93347C29.2342 6.29449 28.6319 6.42192 28.0754 6.53966C28.0296 6.54935 27.9841 6.55898 27.939 6.56867C27.9389 6.56869 27.9388 6.56871 27.9387 6.56873C27.9386 6.56874 27.9386 6.56875 27.9386 6.56876L27.303 6.70547L27.3026 6.70556C26.0318 6.97842 25.2189 7.15658 24.6745 7.36046C24.4297 7.45215 24.312 7.52288 24.2596 7.56294C24.2787 7.62544 24.3319 7.74912 24.4724 7.96115C24.7913 8.44244 25.3424 9.05977 26.209 10.022L26.2096 10.0227L26.6428 10.5043C26.6429 10.5045 26.643 10.5046 26.6432 10.5048C26.6742 10.5393 26.7058 10.574 26.7375 10.6091C27.1152 11.0254 27.5315 11.4843 27.7233 12.0737C27.9167 12.6624 27.852 13.2771 27.7933 13.836C27.7883 13.883 27.7834 13.9296 27.7787 13.9758L27.7786 13.9769L27.7127 14.6179C27.7127 14.6181 27.7127 14.6183 27.7127 14.6186C27.5819 15.9037 27.5017 16.7237 27.5288 17.2984C27.5411 17.5596 27.5728 17.6905 27.5947 17.7497C27.6586 17.7528 27.7972 17.7432 28.0609 17.6714C28.6222 17.5186 29.3854 17.1885 30.575 16.6683L31.2311 3.87039ZM31.2311 3.87039C31.886 2.75467 32.307 2.0438 32.6697 1.5939C32.8418 1.38038 32.9478 1.29323 33 1.26002C33.0522 1.29323 33.1582 1.38038 33.3303 1.5939C33.693 2.0438 34.114 2.75467 34.7689 3.87039L34.769 3.87053L35.0967 4.42867C35.0968 4.42882 35.0969 4.42898 35.097 4.42913C35.1203 4.46889 35.1437 4.50906 35.1673 4.54953C35.4519 5.03819 35.7617 5.57016 36.2627 5.93223L36.9949 4.91912L36.2627 5.93224C36.7638 6.29438 37.3686 6.42209 37.9247 6.53952C37.9708 6.54926 38.0166 6.55893 38.062 6.56867C38.062 6.56867 38.062 6.56867 38.0621 6.56868C38.0623 6.56873 38.0625 6.56878 38.0628 6.56883L38.698 6.70546C38.698 6.70546 38.698 6.70547 38.698 6.70547C39.969 6.97888 40.7817 7.15699 41.3261 7.36084C41.5702 7.45227 41.6877 7.52282 41.7402 7.56284C41.721 7.62539 41.6677 7.74895 41.5276 7.96044C41.2087 8.44179 40.6576 9.05929 39.7912 10.0218C39.791 10.0219 39.7909 10.0221 39.7908 10.0222L39.3572 10.5034L39.3565 10.5042C39.3249 10.5393 39.2929 10.5746 39.2607 10.6103C38.8828 11.0276 38.4679 11.4857 38.2759 12.0722L38.2756 12.0733C38.0833 12.6621 38.1479 13.2757 38.2068 13.8362C38.2117 13.8829 38.2166 13.9292 38.2213 13.975L38.2214 13.9758L38.2873 14.6179C38.2873 14.618 38.2873 14.6181 38.2873 14.6182C38.4181 15.9035 38.4983 16.7237 38.4713 17.2985C38.4591 17.56 38.4274 17.6908 38.4056 17.7497C38.342 17.753 38.2035 17.7436 37.9394 17.6717C37.3782 17.5188 36.6154 17.1886 35.4259 16.6683L35.4246 16.6677L34.8301 16.4085C34.8299 16.4084 34.8297 16.4083 34.8294 16.4082C34.7886 16.3903 34.7476 16.3722 34.7063 16.3539C34.1836 16.1229 33.6202 15.8738 33 15.8738C32.3805 15.8738 31.8173 16.1224 31.2945 16.3532C31.2528 16.3716 31.2113 16.3899 31.17 16.408C31.1698 16.4081 31.1697 16.4082 31.1695 16.4082L30.5752 16.6682L31.2311 3.87039ZM33.0395 1.2418C33.0393 1.24306 33.0325 1.24657 33.0197 1.24856C33.0333 1.24155 33.0397 1.24055 33.0395 1.2418ZM32.9803 1.24856C32.9675 1.24657 32.9607 1.24306 32.9605 1.2418C32.9603 1.24055 32.9667 1.24155 32.9803 1.24856ZM41.7493 7.51034C41.7504 7.5098 41.7511 7.51616 41.7483 7.53109C41.7468 7.51835 41.7482 7.51089 41.7493 7.51034ZM27.617 17.7919C27.6164 17.7931 27.6118 17.7884 27.6049 17.7742C27.6142 17.7837 27.6176 17.7908 27.617 17.7919ZM24.2223 7.59981C24.2212 7.59963 24.2242 7.59415 24.2348 7.5839C24.2288 7.59487 24.2235 7.59999 24.2223 7.59981ZM41.7777 7.59985C41.7766 7.60004 41.7712 7.59489 41.7652 7.58388C41.7759 7.59416 41.7789 7.59966 41.7777 7.59985ZM38.3835 17.7915C38.383 17.7904 38.3864 17.7833 38.3955 17.7739C38.3887 17.788 38.3841 17.7927 38.3835 17.7915ZM38.4317 17.7473C38.4429 17.7417 38.4502 17.7406 38.4511 17.7414C38.4519 17.7422 38.4463 17.745 38.4317 17.7473ZM27.5486 17.7415C27.5494 17.7406 27.5566 17.7417 27.5678 17.7472C27.5533 17.745 27.5477 17.7423 27.5486 17.7415ZM24.2507 7.51067C24.2518 7.51122 24.2532 7.51872 24.2517 7.5315C24.2489 7.51651 24.2496 7.51012 24.2507 7.51067Z" fill="#F2C75C" stroke="#F2C75C" stroke-width="2.5"/>
<path d="M54.2311 3.87039L54.231 3.87053L53.9033 4.42867C53.8799 4.46858 53.8564 4.5089 53.8327 4.54953C53.5481 5.03819 53.2383 5.57016 52.7373 5.93224L52.7356 5.93347C52.2342 6.29449 51.6319 6.42192 51.0754 6.53966C51.0296 6.54935 50.9841 6.55898 50.939 6.56867C50.9389 6.56869 50.9388 6.56871 50.9387 6.56873C50.9386 6.56874 50.9386 6.56875 50.9386 6.56876L50.303 6.70547L50.3026 6.70556C49.0318 6.97842 48.2189 7.15658 47.6745 7.36046C47.4297 7.45215 47.312 7.52288 47.2596 7.56294C47.2787 7.62544 47.3319 7.74912 47.4724 7.96115C47.7913 8.44244 48.3424 9.05977 49.209 10.022L49.2096 10.0227L49.6428 10.5043C49.6429 10.5045 49.643 10.5046 49.6432 10.5048C49.6742 10.5393 49.7058 10.574 49.7375 10.6091C50.1152 11.0254 50.5315 11.4843 50.7233 12.0737C50.9167 12.6624 50.852 13.2771 50.7933 13.836C50.7883 13.883 50.7834 13.9296 50.7787 13.9758L50.7786 13.9769L50.7127 14.6179C50.7127 14.6181 50.7127 14.6183 50.7127 14.6186C50.5819 15.9037 50.5017 16.7237 50.5288 17.2984C50.5411 17.5596 50.5728 17.6905 50.5947 17.7497C50.6586 17.7528 50.7972 17.7432 51.0609 17.6714C51.6222 17.5186 52.3854 17.1885 53.575 16.6683L54.2311 3.87039ZM54.2311 3.87039C54.886 2.75467 55.307 2.0438 55.6697 1.5939C55.8418 1.38038 55.9478 1.29323 56 1.26002C56.0522 1.29323 56.1582 1.38038 56.3303 1.5939C56.693 2.0438 57.114 2.75467 57.7689 3.87039L57.769 3.87053L58.0967 4.42867C58.0968 4.42882 58.0969 4.42898 58.097 4.42913C58.1203 4.46889 58.1437 4.50906 58.1673 4.54953C58.4519 5.03819 58.7617 5.57016 59.2627 5.93223L59.9949 4.91912L59.2627 5.93224C59.7638 6.29438 60.3686 6.42209 60.9247 6.53952C60.9708 6.54926 61.0166 6.55893 61.062 6.56867C61.062 6.56867 61.062 6.56867 61.0621 6.56868C61.0623 6.56873 61.0625 6.56878 61.0628 6.56883L61.698 6.70546C61.698 6.70546 61.698 6.70547 61.698 6.70547C62.969 6.97888 63.7817 7.15699 64.3261 7.36084C64.5702 7.45227 64.6877 7.52282 64.7402 7.56284C64.721 7.62539 64.6677 7.74895 64.5276 7.96044C64.2087 8.44179 63.6576 9.05929 62.7912 10.0218C62.791 10.0219 62.7909 10.0221 62.7908 10.0222L62.3572 10.5034L62.3565 10.5042C62.3249 10.5393 62.2929 10.5746 62.2607 10.6103C61.8828 11.0276 61.4679 11.4857 61.2759 12.0722L61.2756 12.0733C61.0833 12.6621 61.1479 13.2757 61.2068 13.8362C61.2117 13.8829 61.2166 13.9292 61.2213 13.975L61.2214 13.9758L61.2873 14.6179C61.2873 14.618 61.2873 14.6181 61.2873 14.6182C61.4181 15.9035 61.4983 16.7237 61.4713 17.2985C61.4591 17.56 61.4274 17.6908 61.4056 17.7497C61.342 17.753 61.2035 17.7436 60.9394 17.6717C60.3782 17.5188 59.6154 17.1886 58.4259 16.6683L58.4246 16.6677L57.8301 16.4085C57.8299 16.4084 57.8297 16.4083 57.8294 16.4082C57.7886 16.3903 57.7476 16.3722 57.7063 16.3539C57.1836 16.1229 56.6202 15.8738 56 15.8738C55.3805 15.8738 54.8173 16.1224 54.2945 16.3532C54.2528 16.3716 54.2113 16.3899 54.17 16.408C54.1698 16.4081 54.1697 16.4082 54.1695 16.4082L53.5752 16.6682L54.2311 3.87039ZM56.0395 1.2418C56.0393 1.24306 56.0325 1.24657 56.0197 1.24856C56.0333 1.24155 56.0397 1.24055 56.0395 1.2418ZM55.9803 1.24856C55.9675 1.24657 55.9607 1.24306 55.9605 1.2418C55.9603 1.24055 55.9667 1.24155 55.9803 1.24856ZM64.7493 7.51034C64.7504 7.5098 64.7511 7.51616 64.7483 7.53109C64.7468 7.51835 64.7482 7.51089 64.7493 7.51034ZM50.617 17.7919C50.6164 17.7931 50.6118 17.7884 50.6049 17.7742C50.6142 17.7837 50.6176 17.7908 50.617 17.7919ZM47.2223 7.59981C47.2212 7.59963 47.2242 7.59415 47.2348 7.5839C47.2288 7.59487 47.2235 7.59999 47.2223 7.59981ZM64.7777 7.59985C64.7766 7.60004 64.7712 7.59489 64.7652 7.58388C64.7759 7.59416 64.7789 7.59966 64.7777 7.59985ZM61.3835 17.7915C61.383 17.7904 61.3864 17.7833 61.3955 17.7739C61.3887 17.788 61.3841 17.7927 61.3835 17.7915ZM61.4317 17.7473C61.4429 17.7417 61.4502 17.7406 61.4511 17.7414C61.4519 17.7422 61.4463 17.745 61.4317 17.7473ZM50.5486 17.7415C50.5494 17.7406 50.5566 17.7417 50.5678 17.7472C50.5533 17.745 50.5477 17.7423 50.5486 17.7415ZM47.2507 7.51067C47.2518 7.51122 47.2532 7.51872 47.2517 7.5315C47.2489 7.51651 47.2496 7.51012 47.2507 7.51067Z" fill="#F2C75C" stroke="#F2C75C" stroke-width="2.5"/>
<path d="M77.2311 3.87039L77.231 3.87053L76.9033 4.42867C76.8799 4.46858 76.8564 4.5089 76.8327 4.54953C76.5481 5.03819 76.2383 5.57016 75.7373 5.93224L75.7356 5.93347C75.2342 6.29449 74.6319 6.42192 74.0754 6.53966C74.0296 6.54935 73.9841 6.55898 73.939 6.56867C73.9389 6.56869 73.9388 6.56871 73.9387 6.56873C73.9386 6.56874 73.9386 6.56875 73.9386 6.56876L73.303 6.70547L73.3026 6.70556C72.0318 6.97842 71.2189 7.15658 70.6745 7.36046C70.4297 7.45215 70.312 7.52288 70.2596 7.56294C70.2787 7.62544 70.3319 7.74912 70.4724 7.96115C70.7913 8.44244 71.3424 9.05977 72.209 10.022L72.2096 10.0227L72.6428 10.5043C72.6429 10.5045 72.643 10.5046 72.6432 10.5048C72.6742 10.5393 72.7058 10.574 72.7375 10.6091C73.1152 11.0254 73.5315 11.4843 73.7233 12.0737C73.9167 12.6624 73.852 13.2771 73.7933 13.836C73.7883 13.883 73.7834 13.9296 73.7787 13.9758L73.7786 13.9769L73.7127 14.6179C73.7127 14.6181 73.7127 14.6183 73.7127 14.6186C73.5819 15.9037 73.5017 16.7237 73.5288 17.2984C73.5411 17.5596 73.5728 17.6905 73.5947 17.7497C73.6586 17.7528 73.7972 17.7432 74.0609 17.6714C74.6222 17.5186 75.3854 17.1885 76.575 16.6683L77.2311 3.87039ZM77.2311 3.87039C77.886 2.75467 78.307 2.0438 78.6697 1.5939C78.8418 1.38038 78.9478 1.29323 79 1.26002C79.0522 1.29323 79.1582 1.38038 79.3303 1.5939C79.693 2.0438 80.114 2.75467 80.7689 3.87039L80.769 3.87053L81.0967 4.42867C81.0968 4.42882 81.0969 4.42898 81.097 4.42913C81.1203 4.46889 81.1437 4.50906 81.1673 4.54953C81.4519 5.03819 81.7617 5.57016 82.2627 5.93223L82.9949 4.91912L82.2627 5.93224C82.7638 6.29438 83.3686 6.42209 83.9247 6.53952C83.9708 6.54926 84.0166 6.55893 84.062 6.56867C84.062 6.56867 84.062 6.56867 84.0621 6.56868C84.0623 6.56873 84.0625 6.56878 84.0628 6.56883L84.698 6.70546C84.698 6.70546 84.698 6.70547 84.698 6.70547C85.969 6.97888 86.7817 7.15699 87.3261 7.36084C87.5702 7.45227 87.6877 7.52282 87.7402 7.56284C87.721 7.62539 87.6677 7.74895 87.5276 7.96044C87.2087 8.44179 86.6576 9.05929 85.7912 10.0218C85.791 10.0219 85.7909 10.0221 85.7908 10.0222L85.3572 10.5034L85.3565 10.5042C85.3249 10.5393 85.2929 10.5746 85.2607 10.6103C84.8828 11.0276 84.4679 11.4857 84.2759 12.0722L84.2756 12.0733C84.0833 12.6621 84.1479 13.2757 84.2068 13.8362C84.2117 13.8829 84.2166 13.9292 84.2213 13.975L84.2214 13.9758L84.2873 14.6179C84.2873 14.618 84.2873 14.6181 84.2873 14.6182C84.4181 15.9035 84.4983 16.7237 84.4713 17.2985C84.4591 17.56 84.4274 17.6908 84.4056 17.7497C84.342 17.753 84.2035 17.7436 83.9394 17.6717C83.3782 17.5188 82.6154 17.1886 81.4259 16.6683L81.4246 16.6677L80.8301 16.4085C80.8299 16.4084 80.8297 16.4083 80.8294 16.4082C80.7886 16.3903 80.7476 16.3722 80.7063 16.3539C80.1836 16.1229 79.6202 15.8738 79 15.8738C78.3805 15.8738 77.8173 16.1224 77.2945 16.3532C77.2528 16.3716 77.2113 16.3899 77.17 16.408C77.1698 16.4081 77.1697 16.4082 77.1695 16.4082L76.5752 16.6682L77.2311 3.87039ZM79.0395 1.2418C79.0393 1.24306 79.0325 1.24657 79.0197 1.24856C79.0333 1.24155 79.0397 1.24055 79.0395 1.2418ZM78.9803 1.24856C78.9675 1.24657 78.9607 1.24306 78.9605 1.2418C78.9603 1.24055 78.9667 1.24155 78.9803 1.24856ZM87.7493 7.51034C87.7504 7.5098 87.7511 7.51616 87.7483 7.53109C87.7468 7.51835 87.7482 7.51089 87.7493 7.51034ZM73.617 17.7919C73.6164 17.7931 73.6118 17.7884 73.6049 17.7742C73.6142 17.7837 73.6176 17.7908 73.617 17.7919ZM70.2223 7.59981C70.2212 7.59963 70.2242 7.59415 70.2348 7.5839C70.2288 7.59487 70.2235 7.59999 70.2223 7.59981ZM87.7777 7.59985C87.7766 7.60004 87.7712 7.59489 87.7652 7.58388C87.7759 7.59416 87.7789 7.59966 87.7777 7.59985ZM84.3835 17.7915C84.383 17.7904 84.3864 17.7833 84.3955 17.7739C84.3887 17.788 84.3841 17.7927 84.3835 17.7915ZM84.4317 17.7473C84.4429 17.7417 84.4502 17.7406 84.4511 17.7414C84.4519 17.7422 84.4463 17.745 84.4317 17.7473ZM73.5486 17.7415C73.5494 17.7406 73.5566 17.7417 73.5678 17.7472C73.5533 17.745 73.5477 17.7423 73.5486 17.7415ZM70.2507 7.51067C70.2518 7.51122 70.2532 7.51872 70.2517 7.5315C70.2489 7.51651 70.2496 7.51012 70.2507 7.51067Z" fill="#F2C75C" stroke="#F2C75C" stroke-width="2.5"/>
<path d="M100.231 3.87039L100.231 3.87053L99.9033 4.42867C99.8799 4.46858 99.8564 4.5089 99.8327 4.54953C99.5481 5.03819 99.2383 5.57016 98.7373 5.93224L98.7356 5.93347C98.2342 6.29449 97.6319 6.42192 97.0754 6.53966C97.0296 6.54935 96.9841 6.55898 96.939 6.56867C96.9389 6.56869 96.9388 6.56871 96.9387 6.56873C96.9386 6.56874 96.9386 6.56875 96.9386 6.56876L96.303 6.70547L96.3026 6.70556C95.0318 6.97842 94.2189 7.15658 93.6745 7.36046C93.4297 7.45215 93.312 7.52288 93.2596 7.56294C93.2787 7.62544 93.3319 7.74912 93.4724 7.96115C93.7913 8.44244 94.3424 9.05977 95.209 10.022L95.2096 10.0227L95.6428 10.5043C95.6429 10.5045 95.643 10.5046 95.6432 10.5048C95.6742 10.5393 95.7058 10.574 95.7375 10.6091C96.1152 11.0254 96.5315 11.4843 96.7233 12.0737C96.9167 12.6624 96.852 13.2771 96.7933 13.836C96.7883 13.883 96.7834 13.9296 96.7787 13.9758L96.7786 13.9769L96.7127 14.6179C96.7127 14.6181 96.7127 14.6183 96.7127 14.6186C96.5819 15.9037 96.5017 16.7237 96.5288 17.2984C96.5411 17.5596 96.5728 17.6905 96.5947 17.7497C96.6586 17.7528 96.7972 17.7432 97.0609 17.6714C97.6222 17.5186 98.3854 17.1885 99.575 16.6683L100.231 3.87039ZM100.231 3.87039C100.886 2.75467 101.307 2.0438 101.67 1.5939C101.842 1.38038 101.948 1.29323 102 1.26002C102.052 1.29323 102.158 1.38038 102.33 1.5939C102.693 2.0438 103.114 2.75467 103.769 3.87039L103.769 3.87053L104.097 4.42867C104.097 4.42882 104.097 4.42898 104.097 4.42913C104.12 4.46889 104.144 4.50906 104.167 4.54953C104.452 5.03819 104.762 5.57016 105.263 5.93223L105.995 4.91912L105.263 5.93224C105.764 6.29438 106.369 6.42209 106.925 6.53952C106.971 6.54926 107.017 6.55893 107.062 6.56867C107.062 6.56867 107.062 6.56867 107.062 6.56868C107.062 6.56873 107.063 6.56878 107.063 6.56883L107.698 6.70546C107.698 6.70546 107.698 6.70547 107.698 6.70547C108.969 6.97888 109.782 7.15699 110.326 7.36084C110.57 7.45227 110.688 7.52282 110.74 7.56284C110.721 7.62539 110.668 7.74895 110.528 7.96044C110.209 8.44179 109.658 9.05929 108.791 10.0218C108.791 10.0219 108.791 10.0221 108.791 10.0222L108.357 10.5034L108.356 10.5042C108.325 10.5393 108.293 10.5746 108.261 10.6103C107.883 11.0276 107.468 11.4857 107.276 12.0722L107.276 12.0733C107.083 12.6621 107.148 13.2757 107.207 13.8362C107.212 13.8829 107.217 13.9292 107.221 13.975L107.221 13.9758L107.287 14.6179C107.287 14.618 107.287 14.6181 107.287 14.6182C107.418 15.9035 107.498 16.7237 107.471 17.2985C107.459 17.56 107.427 17.6908 107.406 17.7497C107.342 17.753 107.204 17.7436 106.939 17.6717C106.378 17.5188 105.615 17.1886 104.426 16.6683L104.425 16.6677L103.83 16.4085C103.83 16.4084 103.83 16.4083 103.829 16.4082C103.789 16.3903 103.748 16.3722 103.706 16.3539C103.184 16.1229 102.62 15.8738 102 15.8738C101.38 15.8738 100.817 16.1224 100.295 16.3532C100.253 16.3716 100.211 16.3899 100.17 16.408C100.17 16.4081 100.17 16.4082 100.169 16.4082L99.5752 16.6682L100.231 3.87039ZM102.04 1.2418C102.039 1.24306 102.032 1.24657 102.02 1.24856C102.033 1.24155 102.04 1.24055 102.04 1.2418ZM101.98 1.24856C101.968 1.24657 101.961 1.24306 101.96 1.2418C101.96 1.24055 101.967 1.24155 101.98 1.24856ZM110.749 7.51034C110.75 7.5098 110.751 7.51616 110.748 7.53109C110.747 7.51835 110.748 7.51089 110.749 7.51034ZM96.617 17.7919C96.6164 17.7931 96.6118 17.7884 96.6049 17.7742C96.6142 17.7837 96.6176 17.7908 96.617 17.7919ZM93.2223 7.59981C93.2212 7.59963 93.2242 7.59415 93.2348 7.5839C93.2288 7.59487 93.2235 7.59999 93.2223 7.59981ZM110.778 7.59985C110.777 7.60004 110.771 7.59489 110.765 7.58388C110.776 7.59416 110.779 7.59966 110.778 7.59985ZM107.384 17.7915C107.383 17.7904 107.386 17.7833 107.395 17.7739C107.389 17.788 107.384 17.7927 107.384 17.7915ZM107.432 17.7473C107.443 17.7417 107.45 17.7406 107.451 17.7414C107.452 17.7422 107.446 17.745 107.432 17.7473ZM96.5486 17.7415C96.5494 17.7406 96.5566 17.7417 96.5678 17.7472C96.5533 17.745 96.5477 17.7423 96.5486 17.7415ZM93.2507 7.51067C93.2518 7.51122 93.2532 7.51872 93.2517 7.5315C93.2489 7.51651 93.2496 7.51012 93.2507 7.51067Z" fill="#F2C75C" stroke="#F2C75C" stroke-width="2.5"/>
</svg>
